<svg version="1.2" xmlns="http://www.w3.org/2000/svg" viewBox="0 0 768 420" width="768" height="420">
	<defs>
		<clipPath clipPathUnits="userSpaceOnUse" id="cp1">
			<path d="m0 0h768v420h-768z"/>
		</clipPath>
		<clipPath clipPathUnits="userSpaceOnUse" id="cp2">
			<path d="m-230-1603h1567v2551.93h-1567z"/>
		</clipPath>
	</defs>
	<style>
		.s0 { fill: #ffffff } 
		.s1 { fill: #f7f7f7 } 
		.s2 { fill: #000000 } 
		.s3 { fill: #003da5 } 
		.s4 { fill: #009edb } 
		.s5 { fill: #3da300 } 
		.s6 { fill: #215800 } 
	</style>
	<g id="Clip-Path" clip-path="url(#cp1)">
		<g>
			<path fill-rule="evenodd" class="s0" d="m0 0h768v420h-768z"/>
			<g id="Clip-Path" clip-path="url(#cp2)">
				<g>
					<path class="s1" d="m1118.99-1596.53h-1144.77v2363.32h1144.77z"/>
					<path class="s2" d="m1123.41-1603h-1150.9v2551.93h1150.9z"/>
					<path class="s3" d="m335.21 214.45c0-11.54-17.09-11.32-17.09-25.05 0-12.84 11.52-18.7 15.39-21.71l-3.52-5.45c-13.63 4.19-30.82 16.81-30.82 39.54 0 12.7 8.76 25.91 21.5 25.91 8.08 0 14.54-4.68 14.54-13.24z"/>
					<path class="s4" d="m386.96 204.72c0 28.47-23.52 44.91-44.23 44.91-6.21 0-12.34-1.56-12.34-1.56v-8.41c19.36 0.27 29.97-10.93 29.97-23.06 0-9.45-6.22-13.4-12.33-17.29-5.91-3.76-11.73-7.47-11.73-16.07 0-7.71 6.47-17.72 20.47-17.72 15 0 30.19 18.63 30.19 39.2z"/>
					<path fill-rule="evenodd" class="s5" d="m51.43 118.31c-0.38 0.48-0.36 0.87-0.12 1.12q-0.42 0.39-0.84 0.76c0.46 0.05 0.96-0.01 1.48-0.22q0.17-0.06 0.33-0.13c0.47 0.04 0.98-0.03 1.39-0.25q0.75-0.42 1.48-0.86c10.95-4.13 22.17-6.72 33.25-10.21 3.69-1.16 7.36-2.11 11.03-2.93q8.06-0.47 16.21-1.63c5.24-0.73 10.31-2.12 15.4-3.74q1.23-0.21 2.46-0.42c12.53-2.19 23.46-5.29 35.01-11.9 4.97-2.84 9.78-6.01 14.5-9.33q1.18-0.59 2.38-1.16c1.78-0.83 2.84-1.9 3.3-2.94q2.68-1.96 5.31-3.95c11.62-4.35 23.12-9.35 34.68-14.66 26.88-12.34 52.3-27.53 76.06-45.08 4.63-3.42 9.06-6.97 13.34-10.61-3.16-0.08-6.21-0.52-9.31-1.53-13.52 10.56-28.19 19.33-42.85 28.51-12.01 7.86-24.29 15.32-36.81 22.31-11.17 6.24-22.77 11.72-34.55 16.7q-0.29-0.1-0.71-0.08c-8.67 0.43-17.09-0.03-25.88 0.96-10.41 1.18-20.79 3.79-31.05 7.47q-3.81 1.38-7.6 2.88c-9.31 2.44-18.57 5.61-27.64 9.09-9.38 3.6-18.44 8.28-27.04 13.6-4.64 2.88-8.6 6.37-12.99 9.56-3.56 2.58-7.63 5.31-10.22 8.67z"/>
					<path fill-rule="evenodd" class="s5" d="m127.32 191.7q0.6-0.78 1.22-1.55 0.23-0.06 0.46-0.19c8.96-5.22 16.88-14.71 23.94-22.06 7.73-8.04 15.54-16.73 20.96-26.08 5.46-9.44 8.92-19.93 12.51-29.77 1.94-5.32 3.46-10.67 5.33-16 1.45-4.14 3.64-8.47 4.24-12.65 3.42-5.46 6.93-10.88 9.9-16.55 1.08-2.05-2.62-1.9-3.78-0.92-8.25 7.01-14.67 15.81-21.2 24.09-7.46 9.46-14.57 18.87-21.19 28.68-6.05 11.23-11.3 22.48-16.16 34.26q-1.64 3.96-3.35 7.9c-0.74 2.28-1.79 4.58-3.06 6.86q-0.02 0.05-0.04 0.11-0.02 0.04-0.05 0.08c-3.84 8.25-8.16 16.37-13.48 24.16 0.56 0.87 2.83 0.83 3.75-0.37z"/>
					<path fill-rule="evenodd" class="s5" d="m167.46 189.47c-0.17 0.4 0.01 0.66 0.33 0.77q-0.02 0.18 0.07 0.33 0.13 0.18 0.33 0.25c0.05 0.38 0.93 0.46 1.25 0.11q0.11-0.13 0.21-0.26c1.39-0.53 2.47-1.41 3.4-2.57 0.59-0.74 0.98-1.42 1.31-2.14 3.73-3.78 6.42-6.96 9.35-11.44 3.29-5.03 6.77-9.86 10.23-14.83 5.62-8.08 7.05-19.67 8.75-28.24 2.44-12.35 5.06-24.53 8.92-36.87 1.72-5.51 3.61-11 5.51-16.5 1.2-3.49 2.17-7.02 3.23-10.54 1.25-2.72 2.24-5.42 2.77-8.1q0.01-0.01 0.01-0.02c0.93-2.29-3.43-2.3-4.51-0.49-3.05 5.07-5.29 10.45-8.21 15.59-2.32 4.08-4.67 8.11-6.82 12.22-4.62 6.22-7.56 13.59-10.99 20.07-4.75 8.99-8.65 18.46-11.44 27.79-1.46 4.86-2.12 9.78-3.18 14.65-0.88 3.97-2.04 8.16-2.13 12.08q-0.14 6.18-1.25 12.35c-2.2 5.28-4.93 10.5-7.14 15.78z"/>
					<path fill-rule="evenodd" class="s5" d="m210 132.36c-1.07 7.13-0.97 14.42 0.54 20.79 1.86 7.81 0.95 17.27-0.5 25.81-0.03 0.13 0.08 0.21 0.21 0.25q-0.11 0.4-0.23 0.79c-0.53 1.61 2.55 1.71 3.05 0.29q2.01-5.6 3.74-11.17c1.45-2.9 2.84-5.81 3.91-8.87 2.04-5.78 3.78-11.62 5.56-17.42 1.58-5.17 2.98-10.34 4.56-15.51 1.65-5.39 4.08-10.79 4.6-16.21 0.97-10.11-1.36-19.28 0.05-29.52 0.69-4.98 1.97-10.14 3.3-15.13 1.56-5.86 0.77-11.75 2.8-17.54 0.24-0.7-1.33-0.77-1.59-0.13q-1.03 2.19-2.09 4.37c-2.11 4.06-4.6 8.11-6.57 12.17-9.01 11.51-12.66 26.19-16.06 38.84-1.91 7.13-3.58 14.3-4.91 21.43-0.43 2.3-0.5 4.55-0.37 6.76z"/>
					<path fill-rule="evenodd" class="s5" d="m243.14 107.93c-0.26 4.83-0.86 9.85-0.78 14.63-0.89 3.78-1.73 7.64-1.84 11.28-2.59 11.25-4.32 22.97-3.13 33.65q0.02 0.11 0.05 0.2-0.06 0.48-0.13 0.96c-0.2 1.69 3.21 1.22 3.6-0.42q1.12-4.75 2.12-9.5c2.06-6.48 5.03-12.82 7.04-19.5 3.55-11.85 8-23.58 11.19-35.45 2.67-9.94 4.66-20.14 4.4-29.82-0.13-4.76-1.51-8.88-3.38-12.94-0.25-0.55-0.8-1.11-1.46-1.56-1.25-5.99-4.15-11.49-5.25-17.53-0.06-0.35-0.39-0.51-0.79-0.54q0.07-0.34 0.16-0.7c0.09-0.33-0.6-0.4-0.75-0.09q-0.28 0.55-0.52 1.1-0.33 0.22-0.43 0.57-0.26 0.95-0.49 1.92c-0.51 1.69-0.78 3.34-0.88 4.97q-0.29 2.51-0.15 4.91c-1.48 6.61-3.49 13.17-4.43 19.8q-0.38 2.79-0.54 5.59c-3.16 9.36-3.14 19.58-3.61 28.47z"/>
					<path fill-rule="evenodd" class="s5" d="m270.31 39.02q0.72 6.63-0.06 13.57 0 0.02 0 0.05c-0.88 3.68-1.83 7.3-2.41 10.57-2.45 13.96-7.62 27.11-6.24 40.61 1.06 10.49 5.33 19.71 9.73 28.62 4.55 9.25 13.76 14.32 19.67 22.47 0.69 0.96 4.07 0.56 3.63-1.17-0.62-2.47-1.62-4.7-2.83-6.8-1.72-9.61-3.42-18.88-7.11-27.84-2.78-6.79-3.77-14.71-5.65-22.07q-0.79-4.04-1.45-8.13c-1.79-11.26-3.86-22.93-2.62-34.95 0.28-2.71 0.29-5.36 0.28-8 1.14-6.44 2.71-14.01-1.89-18.06-0.9-0.79-3.49-0.27-3.82 1.31-0.74 3.53 0.4 6.48 0.77 9.82z"/>
					<path fill-rule="evenodd" class="s5" d="m280.77 25.21c2.02 10.96 1.47 22.76 3.7 33.61q0.69 3.25 1.77 6.38c-0.01 2.35-0.03 4.69 0.09 6.98 0.26 5.02 1.83 9.28 3.73 13.61 5.39 12.34 13.38 22.9 22.27 32.71 3.21 5.68 6.49 11.71 11.53 15.45 0.44 0.32 1.93 0.14 1.78-0.73q-0.19-1.06-0.44-2.1 0.05-0.07 0-0.17-0.03-0.04-0.05-0.09c-0.86-3.8-2.06-7.47-2.84-11.31-1.02-5.02-1.86-10.06-3.58-14.79-3.59-9.86-8.73-18.99-13.19-28.38-3.84-8.09-8.25-15.97-10.85-24.72-2.82-9.44-7.12-18.43-9.21-28.16-0.44-2.01-5.16-0.58-4.7 1.7z"/>
					<path fill-rule="evenodd" class="s5" d="m298.03 29.61c-0.39 5.74-0.46 11.48-0.02 17.05 0.19 2.53 0.62 5.02 1.19 7.49 0.68 9.38 2.33 18.52 5.74 27.29 3.49 8.98 10.27 16.05 18.76 20.61 7.77 4.17 16.84 4.8 25.8 6.16 2.41 0.56 4.77 1.21 7 2.11 0.26 0.11 0.82-0.05 1.06-0.28q0.27 0.08 0.54 0.16c0.7 0.22 1.98-0.69 1.04-1q-2.31-0.74-4.62-1.45c-5.47-3.11-11.59-5.29-16.96-8.51-1.13-1.13-2.19-2.27-3.14-3.29-2.82-3.06-4.49-7.79-6.97-11.23-2.64-3.64-4.92-7.57-7.03-11.57-4.51-8.52-8.81-17.52-11.91-26.8-1.57-4.7-2.53-9.58-3.3-14.59-0.34-2.21-0.79-4.66-1.16-7.19-0.06-4.16-0.14-8.32-0.36-12.42-0.08-1.66-3.67-1.27-3.66 0.42q-0.11 1.95-0.22 3.9c-0.46 4.33-1.49 8.86-1.78 13.14z"/>
					<path fill-rule="evenodd" class="s5" d="m85.28 53.02q0.84 0.11 1.68 0.22c5.01 5.39 14.66 8.39 22.49 9.89 9.48 1.81 19.87 2.18 30.08 1.83 10.41-0.35 20.86-1.25 31.36-2.16 8.55-0.73 17.08-1.76 25.44-1.45 4.99 0.18 10.03 0.98 15.19 0.44 0.75-0.08 1.47-0.71 1.11-1.14q0.09 0 0.17-0.01c0.37-0.03 1.08-0.41 0.63-0.71-5.23-3.57-12.7-4.63-19.31-6.09-5.04-1.12-10.02-2.32-15.06-3.38q-1.68-0.56-3.4-1.05c-6.22-1.1-12.5-2.07-18.99-2.43-3.39-0.18-6.81-0.17-10.24-0.04q-6.73-0.15-13.46-0.07c-4.37 0.05-9 1.01-13.45 1.86-3.01 0.57-6.28 0.91-9.46 1.52-7.91 0.63-15.81 0.89-23.25 0.02q-0.61-0.07-1.23-0.15c-1.49 0.85-2.37 2.6-0.3 2.9z"/>
					<path fill-rule="evenodd" class="s5" d="m138.32-2.75q0.23 1.07 0.58 2.1c-0.84 7.81 3.94 14.3 7.21 20.56 4.23 8.07 10.64 13.1 19.04 17.66 7.33 3.98 15.22 7.4 23.85 9.48 12.28 2.97 25.31 3.78 38.4 4.64 1.16 0.07 2.89-1.41 1.33-1.77-5.55-1.26-10.91-2.87-16.14-4.68-2.52-1.13-4.98-2.34-7.5-3.48-3.04-2.73-5.89-5.68-9.68-7.7-6.45-3.42-12.91-6.83-19.25-10.38-5.54-3.1-11.2-6.18-16.24-9.83-6-4.32-10.96-10.08-15.56-15.8q-0.12-0.37-0.24-0.73c-0.92-2.85-3.27-4.9-4.15-7.63-0.15-0.45-1.36-0.36-1.29 0.23 0.32 2.5-0.88 4.81-0.36 7.33z"/>
					<path fill-rule="evenodd" class="s5" d="m170.4-0.63c4.45 8.17 10.76 14.55 17.81 20.86 7.6 6.8 16.39 12.45 25.85 17.33 8.34 4.31 20.49 3.77 30.48 4.93 0.51 0.05 1.23-0.43 0.64-0.73-1.56-0.8-3.1-1.37-4.72-1.83q-0.03-0.03-0.07-0.05c-14.56-6.92-22.18-18.96-33.31-29.01-5.68-5.14-11.93-9.58-18.55-13.79-6.02-3.85-9.59-10.29-16.04-13.62-1.9-3.39-3.32-7.27-6.29-9.93-0.74-0.67-2.87-0.45-3.16 0.88-1.84 8.7 3.63 18.12 7.36 24.96z"/>
					<path fill-rule="evenodd" class="s5" d="m224.48-32.96c0.11 4.99 2.08 9.49 3.63 13.92 1.67 4.77 3.14 9.62 5.09 14.25 3.1 7.38 7.79 15.39 15.64 18.69 3.09 1.3 6.66 1.62 9.76 2.84 2.04 0.8 3.86 2.07 5.75 3.08 3.69 1.98 7.5 3.57 11.89 4.35 2.49 0.44 5.71-3.14 2.71-3.98-8.71-2.43-14.94-9.22-19.09-16.37-4.36-7.51-10.54-14.15-15.66-21.14-9.08-12.41-18.41-27.92-12.26-46.02 0.24-0.69-1.13-0.84-1.41-0.15-4.31 10.53-6.29 20.16-6.05 30.53z"/>
					<path fill-rule="evenodd" class="s5" d="m179.39-37.37q1.12 3.22 2.59 6.22 1.53 3.4 3.54 6.44c1.67 2.73 3.47 5.39 5.32 8.04 2.9 4.15 5.08 8.66 7.41 13.14 2.53 4.85 6.54 8.71 10.23 12.75 7.09 7.74 16.29 12.37 26.47 16.7 7.24 3.08 16.45 8.98 25.86 6.3 2.14-0.61 1.89-2.53 0.34-3.04-2.82-0.95-5.81-1.35-8.7-2.11-3.23-2.29-5.45-5.25-8.21-8.24-4.71-5.11-10.29-9.56-15.14-14.56-7.37-7.62-15.21-16.59-26.01-20.77q-0.26-0.14-0.52-0.29c-3.42-1.73-6.33-4.38-9.13-6.77-2.64-2.23-5.65-3.49-8.14-5.42-1.87-2.77-3.5-5.67-4.88-8.62-0.16-0.35-1.2-0.25-1.03 0.23z"/>
					<path fill-rule="evenodd" class="s3" d="m245.64 276.02q-0.22 0.28-0.44 0.56c-0.19-0.23-0.6-0.34-0.84-0.12-10.49 9.21-18.09 20.63-24.16 33.22-6.2 9.79-11.3 20.42-15.15 31.59-6.68 19.39-11.29 40.31-13.31 60.72-2.1 21.18-0.9 41.88 1.62 62.66 1.33 10.92 2.9 21.83 6.15 32.16 1.19 3.79 2.52 7.52 3.89 11.21 1.22-0.54 2.45-1.04 3.72-1.59 1.83-0.8 3.48-1.97 5.16-3q-0.09-0.69-0.18-1.37c-1.38-11.11-2.52-22.28-3.13-33.53-1.15-21.41-0.81-43.06 1.27-64.59 2.12-21.96 5.72-44.07 11.52-65.41 5.92-21.75 15.2-41.8 24.85-61.87 0.25-0.53-0.64-1.05-0.97-0.64z"/>
					<path fill-rule="evenodd" class="s3" d="m200.77 503.04c-1.74-2.73-3.73-5.19-5.5-7.89-5.25-8.02-9.54-17.16-13.79-25.97-1.47-3.06-2.38-6.66-3.48-9.95-1.2-3.62-2.69-7.08-3.96-10.66-2.62-7.38-4.53-12.05-6.29-19.13-1.9-7.64-3.72-15.29-4.96-23.17-1.26-7.96-2.13-16.03-3.29-24.02-2.26-15.68-5.39-31.12-7.54-46.83-0.82-6.05-1.38-12.21-1.36-18.41q0.51-4.99 1.14-9.96-0.17-0.14-0.33-0.24c-0.41 0.26-0.87 0.4-1.29 0.32q-0.98 1.75-1.82 3.56-1.42 3.5-2.75 7.01c-1 3.02-1.81 6.12-2.51 9.26q-0.63 3.17-1.17 6.36c-2.45 14.2-4.03 28.69-3.68 42.96 0.72 30.3 9.31 58.64 22.49 83.6 7.05 13.35 15.1 25.77 23.91 37.57 4.23 5.66 8.74 10.99 13.45 16.09 2.29-1.61 4.64-2.63 7.09-3.66-1.51-2.21-2.92-4.57-4.36-6.84z"/>
					<path fill-rule="evenodd" class="s3" d="m420.32 372.98c-10.3-2.94-21.09-2.33-31.82-2.01-12.11 0.37-23.98-2.02-36.06-2.24-22.05-0.39-44.91 6.7-65.5 15.56-21.26 9.13-40.87 21.79-55.95 40.72-6.99 8.77-13.07 19.01-19.07 28.57-6.28 10.01-9.66 20.96-13.46 32.09-1.21 3.53 5.69 4.21 6.17 0.85 1.5-10.58 7.08-19.81 12.62-28.76 6.7-10.82 15.54-18.04 24.91-26.03 15.37-13.09 30.91-24.33 49.15-32.17 19.03-8.18 38.29-12.16 58.37-14.6 12.59-1.54 24.86-4.44 37.5-5.19 11.11-0.66 22.55-1.63 33.16-5.82 0.49-0.2 0.48-0.83-0.02-0.97z"/>
					<path fill-rule="evenodd" class="s3" d="m415.41 421.82c-1.56-3.89-5.44-4.16-8.9-5.21-5.47-1.67-10.99-3.16-16.47-4.81-9.75-2.94-19.6-5.9-29.6-7.49-21.19-3.38-43.52-0.9-64.21 4.57-19.75 5.22-38.61 14.54-55.27 27.32-7.72 5.93-14.72 12.33-20.6 20.49-6 8.32-15.09 17.61-15.29 29.13-0.03 1.7 2.14 1.7 3.03 1.07 7.84-5.49 14.55-14.06 21.18-21.23 6.83-7.4 15.79-14.05 23.89-19.6 15.33-10.49 32.33-17.58 49.88-21.97 18.1-4.53 36.78-4.44 55.23-5.35 9.99-0.49 19.64-1.12 29.61 0.18 5.31 0.69 10.53 1.86 15.77 3.07 3.98 0.91 7.55 2.52 11.33 0.58 0.24-0.12 0.56-0.41 0.42-0.75z"/>
					<path fill-rule="evenodd" class="s3" d="m330.05 281.56c-16.89 17.86-37.2 30.58-55.94 46.11-17 14.09-32.75 31.02-43.54 50.88-10.5 19.34-17.86 41.3-20.6 63.41-1.41 11.38-0.38 23.17-0.68 34.6-0.3 11.41-0.17 22.76 0.44 34.17 0.2 3.77 6.64 3.37 6.85-0.3 0.72-12.13 2.13-24.12 3.86-36.12 1.73-12.01 5.57-23.48 8.4-35.2 5.29-21.94 11.27-43.34 22.81-62.68 10.83-18.14 26.15-32.69 40.96-47.13 14.09-13.75 29.92-28.67 37.88-47.49 0.1-0.25-0.29-0.41-0.44-0.25z"/>
					<path fill-rule="evenodd" class="s5" d="m785.29 118.5c-10.51 6.22-21.99 9.14-33.75 11.99-12.52 3.03-24.93 6.53-37.1 10.77-11.67 4.08-22.92 9-33.73 15-5.57 3.09-10.99 6.46-16.33 9.91q-1.13 0.73-2.27 1.45 0.45-0.8 0.89-1.61c1.93-3.6 3.61-7.37 5.14-11.19 9.72-4 19.19-9.12 27.8-15.01 10.57-7.22 19.67-16.22 28.18-25.73 8.69-9.72 17.17-19.62 25.92-29.29 4.22-4.66 8.28-9.38 11.68-14.68 3.32-5.18 6.32-10.54 10.53-15.09 1.47-1.72-1.36-5-3.08-3.19q-0.71 0.74-1.38 1.51c-3.82 3.9-8.76 6.54-13.57 9.02-6.16 3.16-12.24 6.3-18.25 9.75-14.12 8.12-28.48 15.87-41.81 25.26-9.73 6.84-18.95 14.46-24.06 25.44-0.39 0.13-0.69 0.45-0.82 1.03q-0.19 0.9-0.32 1.79c-1.51 4.29-2.15 8.81-3.29 13.22-0.47 1.86-1.18 4.01-1.65 6.2-0.17-2.95-0.44-5.86-0.68-8.62-1.12-12.74-1.99-25.49-3.83-38.15-1.84-12.72-4.93-25.12-10.45-36.77-2.67-5.65-5.99-11-9.64-16.07-4.02-5.59-9.66-10.79-10.77-17.85-0.37-2.38-4.2-3.64-4.53-0.63-1.23 11.37-3.91 22.5-3.38 34.01 0.57 12.27 3.67 24.35 7.55 35.95 3.87 11.58 9.54 21.97 16.02 32.27 3.19 5.07 6.25 10.24 9.53 15.25 3.47 5.32 3.31 16.69 3.49 16.37q-0.27 1.37-0.57 2.74c-1.95 3.79-4.1 7.42-6.71 10.91-0.97-23.4-6.88-48.18-24.47-64.6-7.77-7.24-15.76-14.21-26.84-15.15-13.22-1.13-24.86 8.29-35.26 15.02-1.36 0.88-0.61 3.29 0.81 3.72 10.32 3.09 20.96 3.93 30.9 8.34 9.12 4.05 17.31 9.88 24.88 16.33 8.54 7.27 19.94 17.06 24.6 28.43 0.45 3.97 0.84 7.92 1.22 11.79q0.05 0.45 0.29 0.85c-4.56 5.2-9.55 10.05-14.2 15.18-3.08 3.4-5.91 7-8.56 10.72 1.08-24.9-7.58-51.08-25.59-68.3-18.15-17.35-45.23-24.25-69.41-17.49-2.1 0.58-0.96 3.71 0.81 3.94 20.64 2.66 37.76 16.47 51.55 31.19 7.73 8.26 14.99 17.11 21.43 26.42 3.58 5.17 6.82 10.6 9.54 16.28 2.67 5.59 5.1 11.26 4.44 17.59-0.03 0.29 0.18 0.67 0.42 0.89q-3.26 5.5-6.05 11.26c-1.32-2.68-23.83-35.06-34.37-47.97-12.99-15.92-27.97-30.73-44.68-42.75-1.6-1.15-2.99 0.57-2.47 2.15 6.32 19.3 16.92 36.41 30.77 51.2 7.41 7.9 16.24 14.28 25.09 20.46 4.55 3.18 18.63 18.55 20.07 23.16 0.3 0.95 1.07 1.62 1.9 1.97-2.7 6.51-4.96 13.2-6.77 20-2.42-1.97-3.58-7.02-4.53-9.35-2.07-5.13-5.03-10.12-7.56-15.05-5.01-9.72-11.52-18.33-20.12-25.14-15.74-12.47-39.11-17.99-57.03-6.94-1.24 0.76-0.66 2.86 0.57 3.34 17.38 6.7 33.95 14.58 47.43 27.72 6.58 6.4 12.79 13.44 19.93 19.11 5.79 5.04 12.89 9.31 20.25 10.61q-0.89 4.1-1.39 8.28c5.13 2.59 8.6-8.01 17.86-31.88 1.81-4.65 7.67-11.82 7.25-11.67 4.76-7.45 10.05-14.56 15.36-21.63q1.17-1.55 2.34-3.11c1.59-3.46 3.83-6.44 6.65-8.91q2.36-3.2 4.65-6.45c3.26-1.8 6.52-3.53 10.03-4.77 3.67-1.3 7.77-1.5 11.62-1.76 7.36-0.5 14.74-0.23 22.09-0.83 14.17-1.15 28.08-6.82 40.68-13.1 11.1-5.54 21.72-12.14 31.87-19.28 8.19-5.75 17.42-12.75 21.03-22.45 0.79-2.1-1.85-4.48-3.79-3.34z"/>
					<path fill-rule="evenodd" class="s5" d="m729.66 265.6c-12.82 1.14-24.99-1.14-37.28-4.69-11.86-3.42-24.9-4.94-37.06-7.08-7.1-1.25-14.84-0.38-22.08-0.72-5.67-0.26-11.32 0.16-16.95 0.88-4.63 0.59-9.9 2.03-14.4 3.54-2.63 0.88-4.84 2.65-5.47 5.58-0.17 0.76 0.75 1.31 1.35 1.26 9.13-0.73 19.38 3.28 28.19 5.37 6.89 1.63 13.23 4.63 19.75 7.41 5.77 2.46 12.66 2.98 18.8 3.74 13.07 1.62 25.33 0.33 38.19-2.36 10.15-2.12 19.89-4.14 27.59-11.89 0.46-0.47-0.13-1.09-0.63-1.05z"/>
					<path fill-rule="evenodd" class="s5" d="m759.53 179.97c-11.54 10.72-25.44 9.24-39.18 11.32-11.15 1.67-22.26 2.23-33.49 2.2-21.18-0.06-42.95 0.65-60.45 16.94-2.75 2.57 0.3 6.01 2.88 5.88 5.95-0.29 11.76-1.72 17.72-2.04 5.87-0.32 11.89 0.74 17.7 1.51 12.11 1.62 24.32 2.37 36.47 0.93 13.53-1.6 26.9-7.2 38.65-15.22 7.66-5.24 16.67-11.14 20.4-21.08 0.18-0.48-0.44-0.68-0.7-0.44z"/>
					<path fill-rule="evenodd" class="s5" d="m747.91 240.96c-4.91-8.83-10.99-11.85-18.42-13.27-10.51-2-21-4.07-31.57-5.18-12.71-1.33-25.28 0.79-37.97 1.76-6.6 0.5-13 1.6-19.56 2.88-8.69 1.7-15.17 7.9-23.59 0.81-2.54-2.15-7.08 3.16-3.91 6.11 4.17 3.88 10.76 3.3 14.31 8.09 3.22 4.36 8.19 5.18 12.26 6.08 11.25 2.47 22.08 2.27 33.32-0.27 11.86-2.69 23.27-4.45 35.16-6.98 7.54-1.61 15.18-2.21 22.79-2.57 5.17-0.25 12.35-1.96 16.8 2.94 0.19 0.2 0.59-0.03 0.38-0.4z"/>
					<path fill-rule="evenodd" class="s3" d="m712.28 432.71c-7.03-1.25-13.9-3.51-19.74-7.08-10.8-6.6-22.23-12.2-33.13-18.77q-2.54-0.12-5.11-0.08c-3.45 0.06-6.9 0.39-10.34 0.73 5.21 2.81 9.11 7.45 14.34 11.33 9.87 7.32 21.35 10.43 33.01 13.6 0.25 0.06 0.09 0.37-0.13 0.33-5.59-1-10.99-2.56-16.52-3.8-5.12-1.14-10.28-1.98-15.13-4.03-8.91-3.76-14.64-11.35-22.26-16.83q-0.31 0.03-0.62 0.05c-2.75 0.19-5.47 0.66-8.2 0.23-1.47-0.24-2.84-0.42-4.22-0.42 5.44 2.32 9.76 7.17 14.51 10.55 6.57 4.69 12.18 10.84 19.77 13.8 0.33 0.13 0.14 0.54-0.19 0.45-6.64-2.03-14.47-1.8-19.47-7.3-3.07-3.37-6.07-6.83-9.66-9.67-2.7-2.14-5.77-3.82-8.41-6.01-0.37-0.31-0.55-0.76-0.57-1.2-3.4 1.01-6.27 2.53-9.06 4.29 0.69 0.9 1.65 1.6 2.61 1.85 5.23 1.38 6.54 2.41 7.48 7.14 0.58 2.95 1.87 5.19 3.52 7.63 3.21 4.75 6.68 8.87 12.06 9.71 2.42 2.81 6.2 4.64 9.68 5.46 3.87 0.91 8.8-0.76 9.95-4.04 0.76 0.22 1.57 0.44 1.9 0.56 1.88 0.67 3.7 1.52 5.56 2.24 2.73 1.07 5.81 1 8.42 2.48 2.54 1.44 4.49 2.28 7.45 2.38 2.41 0.08 5.13-2.18 4.5-4.68 2.86 0.07 5.76 0.21 8.56-0.32 5.25-0.99 7.98-4.41 7.94-8.92 3.75-0.9 7.64-1.21 11.5-1.66z"/>
					<path fill-rule="evenodd" class="s3" d="m742.57 406.56c1.13 1.02 2.05 2.21 1.96 3.94-0.14 2.85-3.97 4.54-6.1 5.48-3.68 1.62-7.52 3.01-11.08 4.91 0.74 4.11-0.48 7.32-3.59 8.98q-0.09 0.16-0.18 0.31-0.76 0.31-1.54 0.58c-9.34-2.53-18.27-6.22-27.62-8.83-3.51-0.97-6.65-1.52-10.03-3.11q-4.04-1.92-8.03-3.93c-5.43-2.72-10.86-5.41-16.35-8.01 5.55 0.26 11.03 0.83 16.61 0.5q3-0.18 5.99-0.44c4.6 1.88 9.38 3.42 13.97 5.33 5.68 2.36 11.34 4.42 17.32 5.81 0.12 0.03 0.24-0.16 0.1-0.21-7.07-2.81-13.25-8.9-20.22-12.25q3.53-0.5 7.05-1.12c3.12 1.81 6.92 2.78 10.24 4.05 3.24 1.25 6.04 2.78 9.63 2.71 0.27-0.01 0.42-0.4 0.11-0.48-5.09-1.34-8.26-4.24-12.28-7.39q-0.2-0.14-0.4-0.28 2.68-0.55 5.35-1.15c5.58 1.22 10.39 5.07 16.34 5.31 0.18 0.01 0.22-0.22 0.03-0.25-4.45-0.63-8.8-4.06-13.28-5.76 9.07-2.03 18.31-4.06 25.06-11.2 0.13-0.15-0.08-0.27-0.21-0.17-7.88 6.46-19.06 8.06-29.09 8.69 3.47-2.61 6.45-6.06 9.97-8.55 5.47-3.87 10.68-6.81 15.47-11.62 0.22-0.21-0.07-0.48-0.3-0.33-5.36 3.51-10.87 6.84-16.27 10.3-5.13 3.27-12.1 4.75-15.32 10.45q-0.02 0.06-0.04 0.11-2.67 0.19-5.34 0.46c1.21-1.11 2.41-2.23 3.71-3.2 2.53-1.88 4.47-4.15 6.73-6.35 0.24-0.23-0.18-0.43-0.37-0.38-5.89 1.89-13.39 4.67-16.69 10.61q-2.01 0.2-4.03 0.35c5.84-4.21 11.56-8.63 17.05-13.26 0.31-0.25-0.17-0.56-0.42-0.43-6.92 3.41-12.84 8.59-18.58 13.81q-3.75 0.23-7.5 0.45c-3.21 0.19-7.05-0.26-10.16 0.6-4.02 1.12-8.05 1.57-12.1 1.68 2.74-2.56 4.97-5.61 7.74-8.16 3.02-2.78 6.21-5.36 9.41-7.92 6.01-4.8 11.08-11.13 18.05-14.4 0.15-0.07 0.04-0.28-0.1-0.23-6.89 2.37-13.96 6.06-19.42 11.02-5.9 5.35-15.25 10.93-17.95 18.92-0.1 0.31-0.05 0.58 0.09 0.79-8.4 0.01-16.83-1.13-25.26-0.36q-0.37 0.04-0.8 0.14c1.07-1.33 2.14-2.67 3.35-3.89 2.1-2.12 4.6-3.65 7.04-5.32 2.87-1.96 4.91-4.91 7.53-7.18 3.07-2.68 5.57-5.26 8.4-8.19 0.14-0.14-0.05-0.27-0.19-0.17-6.21 4.38-13.31 7.49-19.32 12.17-2.33 1.81-4.24 4.57-6.21 6.75-2.22 2.44-4.73 4.92-5.85 8.07-2.63 1.3-5.92 1.72-8.63 2.73-1.98 0.74-3.95 1.54-5.84 2.5-0.05-0.65 0.08-1.3 0.46-1.9 5.51-8.9 14.04-16.77 22.07-23.53 1.07-2.57 2.47-5.02 4.11-7.27 4.68-4.07 8.4-9.52 14.74-10.88 3.33 2.39 11.64-1.86 16.82-4.31-0.02 1.53 1.6 2.73 3.1 2.02 7.65-3.65 15.44-6.49 23.63-4.81q-0.44 1.11-0.88 2.29c-0.68 1.81 1.49 3.71 3.19 3.22 6.29-1.82 13.03-2.2 19.38-0.84-0.97 1.71 1.1 3.71 2.71 3.82 3.46 0.22 6.67 0.68 9.84 1.6q-0.03 0.02-0.05 0.04c-0.81 0.71-1.07 1.82-0.82 2.79-3.78 2.14-8.01 3.32-11.12 6.67-0.36 0.38 0.27 0.89 0.65 0.72 4.02-1.87 7.55-3.82 10.87-6.54q0.33 0.48 0.88 0.76c6.37 3.12 13.33 3.06 20.26 3.8 4.37 0.47 8.6 1.09 12.86 1.32q0.01 0.02 0.02 0.03c-1.44 0.98-2.37 3.22-3.19 4.51-2.04 3.18-3.95 6.56-6.41 9.43q-0.1 0.13-0.18 0.26c0.81 0.59 1.45 1.39 1.73 2.33 1.19 4.02-6.03 6.98-8.68 8.35q-1.62 0.81-3.19 1.72-0.23 0.18-0.41 0.41zm-69.22-32.32c0.33-0.23-0.01-0.63-0.33-0.49-6.61 3.04-13.38 7.06-18.67 12.13-5.74 5.5-11.62 9.72-16 16.61-0.06 0.09 0.11 0.16 0.17 0.08 4.32-6.48 11.02-9.15 17.31-13.15 6.59-4.2 11.11-10.65 17.52-15.17zm26.21 5.52c-5.9 1.65-11.68 4.7-15.68 9.57-0.19 0.24 0.09 0.46 0.32 0.32 5.12-3.15 10.18-6.62 15.56-9.28 0.43-0.2 0.27-0.74-0.2-0.61zm34.75-2.93c0.29-0.14 0.13-0.57-0.18-0.46-2.25 0.8-4.58 1.33-6.86 2.04-2.18 0.67-3.81 2.57-5.59 3.92-0.16 0.14-0.01 0.36 0.18 0.31 2.13-0.6 4.27-0.89 6.29-1.87 2.16-1.04 4.01-2.82 6.16-3.93z"/>
					<path fill-rule="evenodd" class="s3" d="m251.02-32.16c-1.73-1.67-6.14-2.86-7.28-4.6-1.78-2.75 0.99-10.18 3.16-12.13 2.98-2.69 1.45-5.81 0.61-9.35 1.2-1.8 2.34-3.68 3.9-5.21 0.74-0.72 4.51-2.74 4.35 0.17-0.21 3.6 0.44 5.3 3.28 8.2 4.16 4.25 9.95 6.5 15.73 7.41 2.73 0.43 5.51 0.57 8.27 0.45 4.13-0.19 5.89-3.28 9.94-3.6 4.01-0.33 7.5-2.43 11.61-2.89 4.07-0.46 8.15-0.09 12.21 0.26 7.73 0.66 19.92 3.17 26.63 7.54-8.19 3.04-15.19 5.98-24.11 5.4-5.31-0.35-18.49-3.36-22.24 2.24 2.15 2.27 13.16 1.04 16.41 1.44 6.65 0.81 13.85-1.18 20.32 0.45-4.71 3.63-14.45 7.55-20.18 8.98-7.64 1.92-15.58 0.51-23.05 2.41-0.79 4.6 16.88 2.34 19.22 2.12 11.24-1.03 22.3-4.06 32.21-9.51-5.74 8.01-14.16 13.59-23.18 17.27-5.46 2.23-24.44 3.72-25.4 10.55 1.34 2.3 13.44 0.21 16.11-0.18 7.68-1.12 14.83-4.39 20.95-9.12 7.98-6.17 18.28-20.09 29.68-18.71-4.3 3.9-6.64 9.65-11.45 13.21-7.48 5.54-11.92 9.14-15.56 17.99-2.4 5.84-8.75 11.02-14.24 14.29-2.55 1.51-5.12 1.84-7.48-0.21-3.57-3.11-8.51-2.31-12.42-4.73-6.09-1.34-12.48 0.4-18.62-0.8-3-0.58-5.55-2.03-7.77-4.1-2.34-2.19-1.99-6.47-5.04-7.63-4.41-1.69-9.67-2.12-12.83-6.11-5.08-6.44 5.63-8.44 3.58-13.98-0.43-1.18-4.8-5.09-7.32-7.52z"/>
					<path fill-rule="evenodd" class="s3" d="m407.91-123.19c-3.45 5.55-4.94 12.17-5.82 18.58-1.75 12.74-2.41 25.6-6.43 37.94-2.45-2.84-1.76-6.94-2.95-10.26-1.35-3.79-2.93-6.71-3.49-10.91-0.73-5.38-0.56-10.9 0.44-16.22 0.38-1.99 1.92-7.78-0.61-9.08-4.54 2.71-4.56 16.71-4.74 21.28-0.34 8.51 0.84 17.12 3.82 25.12-8.38-11.46-18.54-21.49-28.18-31.85-4.26-4.57-8.76-9.11-12.15-14.39-1.37-2.14-6.08-13.45-9.63-12.29-3.93 7.28 11.63 25.4 15.71 30.17 3.68 4.31 6.73 8.97 10.29 13.34 4.11 5.05 9.87 9 12.96 14.84-2.77-1.28-4.62-3.79-6.58-6.02-3.09-3.51-7.23-5.43-11.18-7.79-4.21-2.52-8.2-5.51-12.08-8.49-2.94-2.26-6.55-7.34-10.21-8.22-0.9 3.79 6.46 9.35 8.8 11.5 2.94 2.69 11.66 7.53 12.14 11.79-9.12-3.86-19.64-9.48-26.64-16.4-4.63-4.57-14.59-17.17-22.06-15.51 0.26 2.35 5.08 4.95 6.56 6.5 2.56 2.69 4.96 5.52 7.67 8.07 4.18 3.92 8.68 7.51 13.18 11.06 6.9 5.44 15.93 14.82 24.56 17.38-7.52-1.74-15.3-2.44-22.9-4.16-3.62-0.82-6.82-2.58-8.9-5.75-2.17-3.29-7.53-2.53-11.94-3.39q-3.31-0.53-6.48-1.63-1.44 0.97-3.16 1.14c-3.83-1.54-6.24-5.04-9.22-7.71-3.76-3.38-6.91-1.83-11.44-2.6-1.21-0.21-7.53 0.85-8.32 1.58 1.52-2.86-4.77-4.17-4.86-7.16 2.94-1.12 5.21 2.07 7.95 2.34 4.17-3.1 2.7-4.74 2.46-9.15-0.43-7.41 2.28-18.11 6.79-23.91 5.31-6.81 8.88-14.42 16.39-19.23 3.43-2.19 7.45-3.77 11.6-3.46 4.14 0.3 7.29 3.69 11.53 1.51 2.89-1.48 4.91-4.18 7.25-6.34 4.38 0.36 8.12 3.1 11.27 5.94 3.01 2.7 6.33 5.85 7.67 9.78 1.38 4.06 0.77 9.12 3.58 12.61q1.67 0.97 3.05 2.32c0.74 1.54-1.13 5.01-1.23 6.73-0.21 3.64 0.28 7.31 1.44 10.77 2.68 8 8.79 14.28 16.14 18.22 2.73-5.95 0.3-13.55 0.28-19.81-0.02-7.39-4.26-12.11-8.29-17.85-4.07-5.8-5.02-11.81-5.24-18.77-0.19-5.66 7.28-6.45 11.53-9.48 1.95-1.39 3.63-2.87 4.28-5.26 0.98-3.66 5.2-0.75 7.65-0.6 6.01 0.36 11.89-1.62 17.85-2.03 6.29-0.43 11.54 1.34 15.68 6.18 2.17 2.54 4.27 5.49 5.41 8.66 3.11 1.34 6.73 0.15 9.97 0.83 5.5 1.14 7.9 7.05 7.2 12.09-0.96 6.98 2 3.77 6.7 7.17 2.12 1.54 2.55 3.57 2.8 5.99 0.39 3.91 1.8 1.58 3.01 4.12-0.04 5.1-1.5 10.09-3.93 14.55-3.03 5.58-7.46 10.3-12.41 14.24-4.18 3.32-10.74 4.33-13.22 9.4-1.62 3.33-2.13 8.68-6.5 9.6-2.71 0.57-8.87 11.07-11.54 14.37 14.72 3.24 19.15-15.87 32.91-15.84 6.78 0.01 13.34-3.22 17.73-8.37 1.3-1.51 2.79-6.56 5.24-6.19 2.55 0.39 5.13 1.81 7.33 3.08 5.58 3.22 11.31 8.12 12.95 14.63 1.08 4.28-1.78 8.17-3.71 11.69 2.06 2.15 4.88 3.45 7.47 4.84 7.07 3.79 8.7 7.49 8.25 15.33 6.3 1.43 4.27 9.71 2.78 14.06-1.1 3.21-4.13 4.21-5.9 6.86-1.62 2.43-0.48 5.65-1.74 8.29-2.74 5.72-7.93 10.32-13.12 13.79-2.98 1.98-12.96 4.49-12.22 7.72 1.1 4.77-12.13 1.25-13.97 0.77-6.14-1.6-13.75-5.01-18.56-9.25-2.09-1.84-2.43-5.11-5.69-5.38-3.26-0.27-4.52-0.09-7.6-1.35-5.71-2.35-6.78-9.8-11.39-13.44-5.27-4.16-12.34-11.19-19.78-8.92 3.48 5.98 7.91 9.92 10.74 16.47 2.77 6.4 1.4 12.08 5.48 18.06 3.93 5.77 8.26 7.47 13.56 11.52 7.28 5.57 7.82 14.8 9.46 23.03 1.45 7.25-7.18 8.78-11.85 12.54-3.08 2.48-5.97 5.18-8.84 7.9q-1.96 1.88-3.94 3.74c-2.21-1.96-4.8-3.44-7.66-4.21-3.49-0.95-7.14-0.81-10.69-0.3-3.12 2.99-7.12 5.48-11.55 5.75-2.6 0.16-5.23-0.62-7.39-2.07-2.61-1.76-3.29-5.87-6.46-6.79-2.28-0.66-7.19-0.46-9.59-0.35-4.45 0.21-4.4 0.03-7.39-3.7-4.07-5.09-10.81-3.8-16.53-3.61-5.87 0.18-11.36-1.06-14.55-6.46-5.32-8.99 3.02-12.25 6.69-18.87 3.3-5.94 11.67-5.4 14.57-12.21 3.12-7.31 1.86-13.26 9.41-17.94 6.77-4.2 11.63-12.14 14.71-19.29 1.3-3 2.35-6.1 3.21-9.25 0.13-0.12 6.36-1.27 6.61-1.04 1.68 4.38-8.91 17.47-11.01 21.41-1.94 3.64-9.78 17.98-6.35 21.87 3.39 0.47 3.68-5.87 4.49-7.94 2.3-5.87 5.71-11.26 9.14-16.51-1.68 5.45-1.63 50.57 6.06 50.28 1.88-4.24-0.24-9.51-0.67-13.86-0.52-5.24-0.32-10.53 0.44-15.74 1.48-10.06 5.49-18.52 7.91-28.42 2.9 13.21-0.81 27.03 4.14 39.93 3.94 5.81 6.54 12.06 9.48 18.3 1.68 3.57 4.47 12.65 9.77 12.38 1.4-1.57-4.89-13.51-5.84-15.77-2.73-6.52-5.95-12.89-7.93-19.7-3.87-13.37-4.26-31.51 0.6-44.4 6.53-3.52 15.29 1.1 21.72 3.07 7.48 2.29 14.96 4.59 22.61 6.23 4.66 1 39.69 5.58 39.3-3.18-3.02-1.89-10.49 0.74-14.16 0.36-6.67-0.69-13.93-1.36-20.44-2.88-10.99-2.56-22-3.71-31.98-9.61 9.3 1.35 18.55 3.1 27.92 3.83 6.08 0.47 25.07 0.35 28.18-6.51-3.38-3.35-16.81 0.97-21.17 1.2-9.76 0.52-19.77-0.28-28.94-3.89 8.41-3.53 19.24-1.33 28.22-3.69 7.55-1.98 20-4.28 25.26-10.64-3.73-2.41-9.6 1.54-13.52 2.2-6.02 1.03-11.98 2.29-17.97 3.48-7.43 1.48-31.37 6.59-35.33-2.54-1.55-3.59 6.63-10.98 8.87-13.99 3.62-4.85 6.59-9.93 8.74-15.59 3.19-8.44 9.22-25.03 5.32-33.79-6.22 2.34-7.09 16.09-8.66 21.44-2.37 8.08-8.35 14.56-10.61 22.69-0.15-10.98 0.46-23.82 2.99-34.51 1.9-8.01 14.22-24.08 6.89-32.07-2.24 0.43-4.58 7.5-5.72 9.33z"/>
					<path fill-rule="evenodd" class="s3" d="m562.28 100.53c1.62 3.36 0.42 7.16-1.71 10.37-1.18 1.78-3.39 3.09-4.2 5.09-0.79 1.95-1.31 3.98-2.51 5.72-1.15 1.66-3.23 4.11-5.36 4.38-1.13 0.14-2.11 0.05-3.11-0.54-0.72-0.43-1.15-0.96-1.98-0.88-5.03 0.49-8.98 3.97-13.89 4.86-1.48 0.27-3.08-1.67-2.31-3.07 1.03-1.87 0.28-2.68-1.09-4.03-1.36-1.33-2.75-2.65-4.07-4.03-2.65-2.76-5.07-5.75-6.87-9.16q-1-1.89-1.82-3.85c-0.36-2.89-0.68-5.77-0.79-8.7-0.21-5.52-0.08-10.69-2.37-15.85-0.88-2-3.4-0.54-3.26 1.24 0.48 5.94 1.05 11.84 0.68 17.6-1.38 2.48-2.84 4.91-4.22 7.35-2.99 5.27-7.54 7.96-13.32 7.37-0.12 1.37-0.25 2.6-1.81 3.33-2.83 1.32-5.67 1.67-8.78 1.55-6.25-0.25-12.74-2.75-18.51 0.73-1.45 0.87-2.98-1.19-2.79-2.49 0.5-3.57-0.79-7.03-0.92-10.58-0.12-2.98-0.06-6.07 0.37-9.02 0.33-2.32 0.92-4.95 2.89-6.39 1.09-0.79 2.52-0.46 3.59-1.11 1-0.61 0.93-2.1 1.02-3.14 0.47-5.8 5.29-8.37 9.82-10.84q1.64-0.89 3.35-1.63 1.05-0.37 2.16-0.65c6.06-1.55 12.22 0.42 18.26-0.89 1.93-0.42 1.21-3.67-0.71-3.46-3.39 0.39-6.72-0.04-10.11-0.34-3.25-0.29-6.5 0.04-9.65 0.86q-2.11 0.56-4.11 1.44c-1.83 0.23-3.55 0.85-4.98 2.21q-0.72 0.71-1.42 1.49-2.68 1.96-4.95 4.33-0.24 0.11-0.48 0.21c-3.22 1.24-6.74 0.78-9.46-1.45-1.21-0.98-2.61-3.85-4.36-3.38-1.75 0.46-3.17 1.67-4.73 2.52-3.2 1.76-6.38 1.37-9.05-1.27-4.22-4.17-4.91-11.74-0.67-15.98-2.69-4.82-2.47-10.93 0.89-15.45 1.58-2.13 3.54-3.89 6.24-4.31 2.46-0.39 4.93 0 7.39 0.33 3 0.4 5.95 0.19 8.97 0.17 2.1-0.01 4.45-0.06 6.43 0.82 0.98 0.44 1.94 0.94 2.93 1.39 0.3 0.14 1.01 0.4 1.37 0.55q-0.01-0.07-0.03-0.14-0.15-0.56-0.37-1.09-0.46-1.08-1.06-2.09c-2.62-4.51-6.4-8.29-9.57-12.39-1.52-1.96-3.09-3.57-4.79-5.36-1.28-1.35-2.65-2.96-2.92-4.89-0.29-2.11 0.98-4.11 2.94-4.88 1.09-0.42 2.17-0.68 3.34-0.73 1.05-0.05 2.46 0.1 3.41-0.42 1.74-0.95 2.02-3.94 2.41-5.68q0.17-0.82 0.38-1.62c2.2-2.29 4.77-4 7.93-4.9 1.82-0.52 3.72-0.59 5.6-0.5 0.7 0.03 1.42 0.07 2.11 0.21q0.43 0.09 0.85 0.25c0.4 0.12 0.37 0.37 0.34 0.09q0.03 0.28 0.13 0.57c1.38 0.22 3.11 0.44 3.89-0.4 1.09-1.19 1.56-2.72 2.68-3.86 2.68-0.92 5.5-0.18 7.94 1.51q-0.08 0.22-0.13 0.41c-0.33 1.21-0.49 2.42-0.4 3.6 1.02 1.11 2.09 2.19 3.04 3.35 0.87 1.07 1.58 2.26 1.87 3.6q0.17 0.22 0.28 0.48c0.14 0.38 0.06 0.84-0.14 1.32-0.06 1.68-0.6 3.24-0.79 4.93-0.34 3.18 0.99 5.93 2.45 8.64q-0.02 0.78 0.02 1.56 0.08 1.33 0.31 2.63c2.08 3.28 3.37 6.95 5.02 10.51 0.8 1.74 1.58 3.63 2.58 5.3-0.29-1.86-0.47-3.67-0.18-5.4q-0.45-1.11-0.9-2.22c1.67-4.24 2.65-8.81 5.17-12.65 3.21-4.89 8.81-7.99 14.25-9.69 3-0.94 14.02-4.1 13.69 2.15q-0.03 0.39-0.07 0.79 0.38-0.06 0.74-0.21c1.3-0.49 2.48-0.69 3.88-0.58 3.35 0.25 6.72 1.37 9.8 2.7 1.01 0.44 1.66 1.76 1.13 2.78-1.3 2.48-2.2 5.18-1.46 8 0.78 2.97 2.43 5.67 3.1 8.66 0.68 3.06 0.24 5.58-1.04 8.38-0.75 1.62-0.45 2.48 0.36 3.98 0.47 0.87 0.75 2.02 0.48 2.99-0.71 2.61-1.9 5.37-3.07 7.81q-0.32 0.67-0.68 1.33c-2.52 2.06-5.67 3.22-9.48 3.01-5.52-0.3-13.18-3.36-17.62 1.41-1.08 1.16-0.27 3 1.03 3.56 2.97 1.26 6.23 1.32 9.46 1.57 7.01 2.44 13.21 6.61 19.16 11.59 4.13 3.46 13.16 11.92 6.93 16.61zm-75.69-78.33c-1.34 4.33 1.38 8.79 3.72 12.27 1.12 1.67 2.36 3.25 3.62 4.8 1.82 0.91 3.41 2.39 5.07 3.54q1.28 0.87 2.54 1.75c-1.09-1.57-2.32-3.09-3.11-4.84-1.44-3.18-2.59-6.48-3.33-9.89q-0.11-0.56 0.13-0.89c-1.48-2.95-3.35-5.61-6.43-7.39-0.74-0.43-1.92-0.29-2.21 0.65zm-17.71 10.27q0.09-0.08 0.17-0.16 0.18-0.08 0.4-0.21c0.38-0.23 0.63-0.59 0.85-0.98q0.12-0.24 0.17-0.5c0.35-0.72 0.2-1.7-0.34-2.27-0.25-0.26-0.57-0.43-0.91-0.47q-0.18-0.11-0.4-0.18c-0.77-0.21-1.36 0.22-1.85 0.74-0.28 0.3-0.49 0.72-0.69 1.07-0.42 0.71-0.19 1.99 0.48 2.58q0.06 0.09 0.14 0.18c0.51 0.53 1.39 0.7 1.98 0.2zm17.16 28.95c1.11-0.22 5.3-1.03 8.04-0.62-0.41-0.64-1.24-1.23-1.74-1.65q-2.23-1.9-4.72-3.41c-1.36-0.45-2.74-0.8-4.02-1.14q-1.02-0.39-2.04-0.76c-7.27-3.08-14.54-6.09-22.56-6.05q-0.46 0-0.76 0.21c-1.05-0.05-1.96 1.44-1.45 2.76 1.68 0.77 3.5 1.13 5.3 1.53 1.8 0.4 3.58 0.87 5.38 1.31 0.59 0.66 1.09 1.37 0.89 1.71-0.25 0.4-0.69 0.69-1.17 0.92q-0.29-0.03-0.58-0.07c-4.89 0.38-10.34 1.08-13.84 4.49-1.01 0.98-0.12 2.88 1.16 3.05 5.29 0.69 10.36-0.8 15.43-2.05 2.06-0.52 4.34-1.1 6.64-1.43q0.09-0.02 0.19-0.04 0.16 0.01 0.4 0.03c0.01 0 0.31 0.05 0.38 0.06q0.29 0.08 0.58 0.18 0.09 0.04 0.12 0.05 0.07 0.04 0.13 0.08 0.12 0.08 0.23 0.17 0.08 0.07 0.21 0.19 0 0.01 0 0.01 0.01 0.01 0.02 0.02 0.07 0.08 0.13 0.18-0.13 0.24-0.29 0.46c-2.15 0.5-4.27 1.15-6.38 1.85-0.65 0.22-1.43 0.43-2.17 0.71q-0.68 0.52-1.27 1.18c-0.48 0.54-0.56 1.25-0.37 1.89 0.36 0.05 0.76 0.07 1.12 0.12 3.1-0.61 6.25-1.16 9.02-2.68 2.61-1.43 5.09-2.66 8-3.25zm-8.01-0.67q0-0.01-0.01-0.01-0.31-0.29 0.01 0.01zm15.24 42.23c4.14 1.22 8.5-10.02 8.2-19.32-0.05-1.51-1.02-3.76-0.6-5.58q-0.9 0.23-1.83 0.26c-1.67 0.56-3.34 1.29-4.97 1.3-2.28 0.02-4.51-0.26-6.79-0.22-1.2 0.01-2.47 0.02-3.73 0.19q-1.22 0.47-2.31 1.17c-0.83 0.55-1.57 1.22-2.27 1.94-0.92 1.14-1.47 2.47-1.09 3.79q0.1 0.37 0.28 0.65c1.57 0.69 3.64-0.02 5.72-1.1q1.75-0.93 3.53-1.75 0.87-0.03 1.72 0.05c1.59 0.15 1.41 0.91 0.72 2.19q-0.26 0.48-0.57 0.93c-2.54 2.15-5.11 4.34-6.81 7.35-0.45 0.79-0.18 2.17 0.56 2.51 3.36 1.58 6.37-0.85 8.71-3.78 0.54-0.97 1.02-1.99 1.64-2.99q0.58-0.26 1.16-0.45c1.71-0.54 2.47-0.31 2.41 1.5-0.03 1.01-0.45 2.17-0.88 3.35q-0.27 0.5-0.61 0.99c-0.83 1.18-1.84 2.19-2.73 3.32q-0.22 0.46-0.4 0.94c-0.42 1.11-0.14 2.43 0.95 2.76zm21.7-33.49c1.2-0.34 2.31-1.08 3.47-1.56 0.18-1.1 0.04-2.26-0.42-3.38-2.13-5.22-8.05-8.83-12.52-11.72-4.26-2.76-8.69-5.25-13.16-7.64q-2.4-1.47-4.97-2.63c-1.68-0.88-3.41-1.72-5.08-2.67 0.39-0.65 0.69-1.39 1.01-2.03 0.3-0.59 0.62-1.14 0.82-1.74q0.26-0.31 0.28-0.75 0.01-0.41-0.12-0.8 0.04 0 0.09-0.02c0.36-0.07 0.64-0.3 0.9-0.55 0.28-0.28 0.5-0.75 0.58-1.14q0.07-0.35 0.09-0.7 0-0.13 0-0.24 0.03-0.39-0.05-0.77c-0.11-0.69-0.6-1.22-1.21-1.49-0.81-0.36-1.71 0.23-2.32 0.73q-0.42 0.28-0.66 0.73-0.25 0.49-0.26 1.04-0.01 0.57 0.24 1.07c-0.68 0.3-1.15 1.07-1.55 1.73-1.05-0.47-1.32-2-1.58-3.16q0-0.02 0-0.04h-0.01q-0.06-0.28-0.13-0.53-0.02-0.08-0.06-0.15 0.1-0.6-0.16-1.31c-0.84-2.23-3.62-2.48-4.91-0.57-0.43 0.63-0.43 1.35-0.18 1.96 0.01 0.61 0.26 1.24 0.68 1.7q-0.56-0.09-1.12-0.16c-0.6-0.07-1.25-0.14-1.9-0.13-0.3-0.26-0.69-0.37-1.16-0.24-0.86 0.26-1.31 0.64-1.78 1.4-0.8 1.29 0.25 3.63 1.93 3.26 0.75-0.17 1.47-0.16 2.23-0.08q-0.09 0.11-0.17 0.22c-0.26 0.41-0.48 0.77-0.58 1.25q-0.05 0.18-0.06 0.36c-0.01 0.08-0.08 0.74-0.05 0.78-0.25 1.16 0.33 2.5 1.67 2.6q0.34 0.02 0.65-0.06c0.46-0.04 0.91-0.21 1.27-0.47 0.5-0.38 0.77-1.01 0.82-1.66q0.28 0.05 0.59 0 0.04-0.01 0.08-0.01 0.23 0.05 0.45 0.13 0.44 0.16 0.78 0.09 0.16 0.27 0.32 0.53c0.17-0.05 0.36-0.01 0.52 0.2 1.4 1.86 2.27 3.93 3.98 5.57 1.58 1.51 3.28 2.85 5.03 4.14 3.84 2.81 8.04 4.93 12.24 7.13 3.6 1.89 7.58 3.7 10.71 6.35 1.64 1.39 3.57 3.32 4.4 5.51q0.17-0.04 0.34-0.08zm-43.8-30.74q0 0 0-0.01 0.01-0.02 0 0.01zm51.57 17.96c0.72-0.43 1.39-0.77 2.1-0.98q0.09-0.21 0.13-0.45 0.72-0.36 1.49-0.62 1.37-0.43 2.76-0.59 0.68 0.04 1.34-0.1c2.33-0.1 4.69 0.22 7.05 0.61 0.83 0.14 4.61 0.95 4.44-0.85-0.1-1.05-1.79-2.28-2.71-2.55-2.2-0.63-8.99-0.6-9.58-1.98-0.6-1.39 2.61-2.95 2.96-3.42 1-0.44 4.49-2.03 5.24-2.42q0.93-0.87 1.75-1.85c0.31-0.37 0.45-0.82 0.45-1.26q-0.58-0.13-1.17-0.29c-1.43-0.35-3.49-0.85-4.9-0.36-0.68 0.23-5.32 2.12-6.36 2.13-0.74 0-1.06-2.07-1.19-2.62-0.16-0.69 0.26-4.14 0.32-5.28 0.12-2.07-0.63-4.69-2.69-5.71q-0.31 0.16-0.63 0.42c-1.54 1.32-2 3.4-2.08 5.58q-0.03 0.1-0.06 0.2c-0.97 4.15-1.23 8.43-2.9 12.37-1.44 3.4-2.98 6.76-2.09 10.55 0.3 1.24 1.31 1.65 2.19 1.38q0.38 0.18 0.9 0.07 0.3-0.06 0.59-0.16c0.98-0.5 1.96-1.41 2.65-1.82zm23.29 38.15q0-0.01 0-0.01 0 0.01 0 0.01zm0 0q0.17-0.27 0.19-0.67c0.2-5.42-5.74-9.02-9.71-11.49-5.52-3.44-11.3-6.66-17.95-6.57q-0.21 0.01-0.38 0.05-0.37 1.11-0.54 2.32 0.05 0.08 0.11 0.16-0.28 1.61-0.3 3.21c0.03 1.85 0.25 3.71 0.53 5.41 0.76 3.79 2.23 7.54 3.68 11.21 0.87 3.89 2.01 7.87 4.33 11.06 0.71 0.99 2 1.15 2.77 0.59 0.58-0.06 1.11-0.48 1.25-1.39 0.81-5.29-0.72-10.24-2.33-15.19 0.25-0.68 0.6-1.31 1.09-1.87 0.56-0.63 1.63 0.19 2.61 1.17 1.65 3.18 3.37 6.7 5.89 9.12 0.96 0.46 1.91 0.48 2.73-0.71q0.49-0.72 0.68-1.46c-0.62-2.48-1.66-4.75-2.91-6.91q-0.13-0.49-0.46-1.07c-0.53-0.92-2.17-1.97-1.07-3.26 1.09-1.29 3.47 0.99 4.03 1.65 1.24 1.44 2.4 3.56 4.19 4.34 0.51 0.22 1.04 0.28 1.57 0.3z"/>
					<path class="s6" d="m761.18-62.33c1.21 4.97 5.16 8.69 6.96 13.43 3.33 8.79-2.74 17.47-9.32 22.94-8.31 6.9-19.12 7.22-28.92 10.54 1.46 0.86 3.34 1.02 5.04 1.18 2.63 0.26 5.15 0.72 7.68 1.46 6.13 1.81 12.62 4.26 17.66 8.29 3.76 3.01 7.86 6.97 9.11 11.81 0.71 2.75 0.1 5.48-1.9 6.7 2.99 5.61 4.85 11.79 5.19 18.16 0.26 4.83-0.1 10.73-3.97 14.18-6.41 5.73-13.84-1.41-19.23-5.01-2.47-1.65-5.16-2.59-7.92-3.25-2.66-1.93-5.71-3.54-7.87-6.03-1.09-1.25-2.9-1.18-3.9 0.14-1.15 1.51-2.41 2.15-3.74 2.17-3.39-1.51-6.32-3.85-8.68-6.71-1.1-1.33-2.14-2.74-3.21-4.12-2.88-4.41-5.22-8.89-6.28-10.66-0.52-0.86-1.78-0.88-2.61-0.39-1.01-0.24-2.37 0.36-2.37 1.59-0.01 11.22 4.96 21.63 11.92 30.23q0.23 0.28 0.52 0.44c2.49 3.69 4.74 7.49 5.84 11.87 2.29 9.16-1.46 18.61-7.52 25.53-4.56 5.2-11.21 10.19-18.21 6.47-5.96-3.16-9.89-8.97-14.51-13.7-2.83-2.91-6-5.45-8.22-8.91-2.15-3.37-2.98-7.19-2.53-11.16 0.46-3.99 1.85-7.71 2.86-11.57 0.94-3.57 1.65-7.27 1.81-10.96 0.21-4.82-1.12-14.1-7.96-12.96-4.01 0.67-7.69 4.2-10.57 6.87-8.54 7.92-15.64 17.58-24.96 24.63-3.14 2.37-7.13 5.1-11.29 4.5-6.71-0.99-7.93-9.74-9.89-14.77-1.14-2.94-2.94-5.09-4.85-7.54-1.42-1.81-2.9-3.82-3.32-6.15-0.62-3.41 0.27-6.94 2.19-9.8 4.1-6.09 10.84-10.05 16.85-14 2.73-1.79 5.59-3.54 7.96-5.79 3.57-3.39 7.53-6.46 12.59-7.01 5.04-0.54 9.72 1.09 14.53 2.29 2.51 0.63 5.15 1.27 7.76 1.1 0.23-0.02 2.01-0.15 2.02-0.39 0.03-0.63-0.58-1.42-0.94-1.88-6.08-7.78-16.78-7.26-25.17-10.87-1.69-1.66-3.21-3.47-4.59-5.49-1.04-1.51-1.94-3.11-2.83-4.71-1.01-1.8-2.79-3.83-2.92-5.98-0.17-2.86 2.09-5.32 1.71-8.23-0.41-3.06-2.58-5.17-4.85-7.06-2.45-2.04-4.38-3.71-5.51-6.74-0.87-2.36-1.51-4.81-1.87-7.3-0.18-1.31-0.21-2.65-0.04-3.97 1.85-2.44 4.82-3.93 7.79-4.44 7.41-1.26 14.45 3.2 20.98 6.01 2.94 1.27 5.72 2.08 8.8 2.26 1.59 0.71 3.17 0.6 4.59-0.06q0.22-0.01 0.45-0.02c1.06 1.69 2.05 3.4 3.47 4.84 1.05 1.07 3.35 0.73 3.85-0.78 0.79-2.43 1.85-2.76 4.17-1.98 2.11 0.71 4.05 2.15 5.83 3.45 0.8 0.57 1.69 0.48 2.39 0.05 1.85 1.78 3.43 3.91 4.76 6.26q1.69 4.32 2.64 8.93 0.5 2.43 0.78 4.88-0.03 0.15-0.03 0.32c-0.14 7.21 0.34 14.4-0.2 21.62-0.15 2.13-0.39 4.3-0.76 6.46-2 4.04-4.07 8.12-4.86 12.52-0.53 0.5-0.81 1.25-0.61 1.86q-0.04 0.07-0.08 0.12c-0.66 0.91-0.17 1.72 0.63 2.11 0.37 1.57 1.33 2.88 3.17 3.28 2.29 0.5 4.57-0.35 6.45-1.6 4.23-2.82 5.99-8.66 7.22-13.29 1.78-6.63 2.45-13.55 2.87-20.38q0.42-6.49 0.53-13.06 0.18-0.51 0.38-1.02c2.43-6.51 4.94-12.88 8.19-19.04 2.96-5.57 6.04-11.57 10.8-15.85 4.89-4.39 10.43-6.23 16.85-7.06 3.62-0.48 7.6-1.53 11.23-0.65 3.85 0.93 6.51 3.87 7.73 7.6 1.41 4.31 1.19 8.88 2.26 13.25zm-97.9 66.57q-1.8-0.42-3.6-0.68c-3.68-0.48-7.42-0.64-11.12-0.25q-0.34 0.03-0.68 0.08-0.31 0.54-0.51 1.2c-9.65-0.61-18.53 7.08-19.37 16.82-0.08 1.03 1.15 1.82 2.08 1.66 2.1-0.38 3.96-1.57 5.74-2.79 1.15-1.1 2.32-2.14 3.65-3 0.61-0.4 1.17-0.44 1.61-0.27q0.01 0 0.03-0.01 0 0.01 0 0.02c0.79 0.35 1.16 1.43 0.66 2.49-1.78 3.77-5.04 7.74-5.22 12.05-0.08 2.16 2.37 1.83 3.77 0.94 1.02-0.65 2.16-1.53 3.22-2.54 1.44-2.43 2.66-5.05 4.21-7.31 1.8-2.63 3.48-5.29 5.55-7.75 1.98-2.34 4.08-4.56 6.17-6.79 1.07-1.14 2.36-2.61 3.81-3.87zm4.74-25.88c6.04 2.49 10.15 6.75 12.48 12.85 0.2 0.53 0.54 0.84 0.94 0.99q0.15-0.66 0.26-1.32c0.69-4.34 0.86-8.76 0.37-13.13-0.51-4.64-1.64-9.2-2.51-13.78-0.38-2.02-0.8-4.07-1.33-6.1-1.4-2.92-3.23-5.65-5.39-8.1-0.96-1.09-3.52-0.42-3.26 1.25 0.55 3.64 1.37 7.25 2.3 10.83q-0.87-0.87-1.78-1.71-0.26-0.35-0.54-0.71c-3.74-4.69-9.21-10.69-15.74-10.74-0.97-0.01-2.46 0.65-2.26 1.89 0.89 5.31 7 8.4 11.02 11.15 4.24 2.91 7.49 6.76 10.52 10.82q-4.28-1.98-8.76-3.47c-5.54-1.81-11.67-3.06-17.48-2.08-1.68 0.29-2.78 2.62-0.8 3.39 2.74 1.08 5.6 1.91 8.51 2.64 4.35 2.08 8.98 3.49 13.45 5.33zm32.72 55.27c-1.93-3.92-4.22-7.55-6.9-11.01-2.05-2.66-4.33-5.11-6.46-7.7-0.39 1.11-0.92 2.18-1.5 3.32q-0.68 1.32-1.25 2.68c-0.52 1.84-1.13 3.65-1.68 5.44-1.44 4.62-2.82 9.26-3.87 13.98-0.67 2.98-1.53 6.98-1.48 10.75 0.12 2.64 0.73 5.2 2.25 7.55q0.3 0.46 0.62 0.88 1 1.02 2.46 1.69 0.26 0.12 0.54 0.14c0.45-3-0.75-6.65-1.23-9.26-0.65-3.52-1.02-7.7 2.04-10.24 0.73-0.62 1.99-0.79 2.46 0.23 0.84 1.82 1.32 3.8 1.73 5.8q0.95 2.18 2.33 4.19c1.05 1.52 4.2 0.31 3.11-1.41-1.15-1.81-2.04-3.74-2.74-5.76 0.61-0.27 1.04-0.84 0.84-1.62-1.63-6.35-3.08-13.17-2.34-19.76 2.85 7.37 6.2 15.3 12.58 19.95 0.63 0.46 1.73 0.51 2.5 0.17-1.13-3.42-2.43-6.78-4.01-10.01zm23.83-37.27q-0.44 0.1-0.88 0.22c-3.21 0.16-6.34 0.8-9.27 2.48q-0.44 0.26-0.7 0.6c-0.55 0.09-1.02 0.47-1.32 0.93 4.25 1.2 7.55 3.64 10.35 6.74 3.03 1.94 5.88 4.11 8.03 7.11 1.72 2.39 2.72 5.7 4.91 7.69 0.52 0.47 3.76 2.12 3.64 1.01-0.11-1-0.99-1.81-1.21-2.8-0.13-0.57 0.06-1.24 0.46-1.71-1.42-1.85-3.09-3.57-4.66-5.34 3.88 0.74 8.11 0.78 11.23 3.27 1.17 0.92 3.64-0.32 3.02-1.91-1.49-3.83-3.99-6.69-8.01-7.9q-1.66-0.49-3.38-0.68c-5.05-1.7-10.65-2.39-14.9-5.5q0.32-0.12 0.64-0.25c2.65-0.28 5.37-0.13 8.02 0.03 4.94 0.29 9.92 0.81 14.81-0.22 1.27-0.27 2.21-1.92 1.19-2.97-6.13-6.34-14.55-3.74-21.97-0.8zm24.18-38.38q-0.55-0.44-1.14-0.8c-2.74-0.02-5.49-0.44-8.21 0.08-3.56 0.69-6.94 2.38-9.84 4.54-4.26 3.16-9.03 8.78-14.71 9.07-1.13 0.06-1.8-0.99-1.38-2.01 1.12-2.8 2.84-5.22 4.59-7.66 0.96-1.33 1.82-2.73 2.72-4.1 1.53-3.23 3.19-6.4 4.81-9.52q0.24-0.35 0.47-0.71c-1.09-1.87-8.64 5.24-9.24 5.9q-1.2 1.32-2.23 2.7c-0.97 2.3-1.81 4.66-2.62 7.03-0.73 2.12-1.57 4.29-2.21 6.47q-0.27 1.83-0.37 3.66-0.4 0.32-0.58 0.85c-0.35 2.67-0.33 5.36-0.06 8.07 0.14 1.39 0.32 2.78 0.43 4.18 3.22-4.3 7.72-7.96 11.68-11.07 1.98-1.56 4.53-2.64 6.85-3.63q1.82-0.79 3.68-1.53 0.33-0.21 0.66-0.42c5.78-2.52 12.2-3.75 16.65-8.63 0.62-0.67 0.86-1.8 0.05-2.46zm-48.22-32.7q0.3 0.18 0.61 0.29c0.96 0.35 2.22-0.12 2.65-1.09 0.69-1.55 1.02-3.14 0.24-4.72q-0.18-0.37-0.46-0.68-0.18-0.36-0.44-0.67c-1.11-1.33-3.32-1.4-4.48-0.09q-0.67 0.44-1.05 1.16c-0.49 0.94-0.38 2.17 0.21 3.06q-0.42 0.53-0.86 1.05-0.05-0.25-0.11-0.47c-0.2-0.72-0.78-1.31-1.6-1.17-1.25 0.22-2.26 0.87-2.84 1.82q-0.55-1.09-1.07-2.21 0.15-0.29 0.27-0.62c0.54-1.41 0.4-3.26-0.66-4.38-0.81-0.86-2-0.86-3.06-0.6q-0.38-0.01-0.74 0.07c-1.7 0.35-3.03 1.48-3.27 3.25-0.16 1.16 0.52 2.29 1.27 3.11 0.67 0.73 1.74 1.34 2.76 1.37q0.04 0.01 0.09 0c1.06 3.41 3.07 6.8 5.35 9.3q0.02 1.25 0.07 2.5-1.89-1.16-3.77-2.36 0.01-0.06 0.02-0.13 0.05-0.41-0.02-0.78c0.13-1.01-0.07-2.04-0.72-2.85-1.06-1.33-3.1-1.02-4.47-0.48-0.58 0.23-1.02 0.65-1.27 1.16-1.56 1.06-1.67 3.06-0.79 4.6q0.46 0.8 1.07 1.3c0.66 0.81 1.65 1.25 2.92 0.91q0.75-0.21 1.39-0.7c1.78 1.83 3.69 3.5 5.92 4.84 0.11 2.3 0.18 4.6 0.11 6.91-0.12 3.62-0.4 7.24-0.48 10.87-0.09 3.9 0.33 7.77 0.36 11.66 0.04 6.33-1.15 12.55-2.14 18.77-1.53 4.39-3.37 8.66-4.9 13.05-0.72 0.58-1.12 1.66-0.81 2.46q-0.11 0.31-0.2 0.63c-0.47 1.56 1.12 2.73 2.48 1.76q1.1-0.8 1.95-1.81c3.07-1.49 5.04-6.2 6.09-8.85 2.48-6.25 2.79-12.89 3.17-19.54q0.29-5.12 0.47-10.25c0.59-5.84 0.88-11.71 1.11-17.58 0.12-3.13 0.17-6.55-0.29-9.84 1.61-1.56 2.6-3.91 3.85-5.87q0.85-0.84 1.34-1.76 0.02-0.02 0.03-0.04c0.38-0.4 0.47-0.83 0.38-1.21q0.12-0.84-0.26-1.76c-0.44-1.03-1.46-0.7-2.25-0.47-0.55 0.16-2.32 2.59-3.05 3.23q-0.55 0.47-1.13 0.92-0.42-2.11-1.08-4.18c0.55-1.02 1.32-1.95 2.09-2.89zm0.54-19.62q-0.11-0.08-0.23-0.14-0.01-0.06-0.02-0.12c-0.52-1.95-3.29-1.28-3.87 0.27q-0.44 1.16-0.51 2.31c-0.42 0.63-1.12 1.53-1.43 1.95-0.59-0.64-1.16-1.26-1.39-1.71-0.51-1.03-1.54-0.97-2.36-0.44-0.97 0.09-2.05 1.16-1.73 2.22 0.52 1.71 0.92 3.5 1.98 4.98 1.11 1.56 3.39 2.18 4.87 0.69 0.67-0.67 0.87-1.44 0.77-2.21 0.14-0.45 0.4-0.89 0.7-1.31q0.37 0.41 0.86 0.79c1.2 0.89 2.57 0.04 3.24-1.06 1.21-2 1.09-4.75-0.88-6.22z"/>
					<path fill-rule="evenodd" class="s4" d="m620.58 406.35c-0.06 5.52-0.03 10.79-2.06 16.02-1.68 4.35-4.95 7.53-9.65 8.47-2.61 0.53-3.49-0.34-4.62 1.72-0.97 1.78-1.8 3.98-3.16 5.51-1.77 2.01-3.9 3.78-5.38 6.03-1.86 2.8-3.06 5.82-4.39 8.9-1.72 3.97-3.75 9.59-7.4 12.27-4.19 3.06-9.1 5.56-13.74 5.02-1.49 1.45-3.2 2.66-5.1 3.24-5.3 1.61-9.25 0.87-14.63-0.04-5.82-0.98-9.9-6.11-12.73-10.83-1.51-2.52-2.93-5.63-5.36-7.41-4.07-2.98-3.51-1.1-7.36-0.1-5.66 1.46-10.58-2.48-11.31-7.99-0.58-4.31-0.64-8.52-1.9-12.72-1.01-3.36-2.36-6.56-3.79-9.77-1.24-2.78-2.46-5.71-3.55-8.7-1.78 3.97-4.15 8.05-3.91 12.35 0.49 8.61 7.9 14.92 9.42 23.3 1.65 9.07 1.06 18.83-3.38 27.03-0.96 1.76-4.2 1.17-5.34 0.02-3.42-3.47-7.24-8.77-11.25-3.37-2.31 3.13-4.94 4.51-8.84 4.73-3.94 0.23-7.88-2.8-9.88-5.94-2.51-3.96-1.07-9.83-7.19-9.8-9.17 0.06-17.57 3.35-26.65 0.38-8.62-2.82-15.85-9.55-21.5-16.42-5.13-6.23-11.58-13.46-13.96-21.32-2.76-9.13 3.48-15.11 7.78-22.48 4.81-8.28 8.55-16.63 16.76-22.21 5.94-4.03 12.77-6.63 19.8-8.09 3.34-8.92 16.37-6.71 24.44-6.71 3.24-0.01 6.1-1.46 8.98-2.9q-1.58-0.04-3.14-0.13c-5.29-0.28-10.69-1.94-15.95-1.85-9.75 0.17-18.46 7.74-27.04 11.7-5.04 2.32-10.22 4.11-15.76 4.65-5.51 0.52-10.4-0.74-15.7-1.93-6.57-1.46-13.93-1.18-20.06-4.12-4.68-2.24-8.37-5.33-11.2-9.73-5.51-8.56-10.49-20.93-8.68-31.31 2.26-13.04 13.92-19.43 19.98-30.26 4.49-8.01 7.95-18.73 18.43-20.5 6.14-1.04 12.03 0.31 17.91 2.13 6.59 2.03 13.45 3.09 20.01 5.1 5.47 1.67 8.73 4.38 11.88 9.03 1.73 2.56 4.1 4.42 5.75 7.07 1.21 1.95 2.33 4.04 3.9 5.74 2.78 2.98 6.38 5.1 9.17 8.08 2.13 2.26 3.55 4.86 6.5 6.09 3.03 1.27 6.15 2.42 9.13 3.8q-1.42-1.22-2.85-2.47c-2.46-2.17-4.65-4.58-6.96-6.89-2.51-2.51-6.63-4.39-8.18-7.86-2.87-6.44-4.74-13.27-6.56-20.07-1.46-5.43-2.98-11.43-6.8-15.75-4.19-4.75-8.16-9.83-13.19-13.71-4.61-3.55-7.09-7.56-7.73-13.39-1.07-9.75 2.9-21.39 9.37-28.7 2.61-2.95 7.92-2.43 10.43 0.25 1.25 1.33 2.17 2.76 3.06 4.35 1 1.77 1.54 0.45 2.37-1.11 1.29-2.4 2.08-4.99 3.25-7.44 2.71-5.7 6.68-9.63 13.47-10 3.2-0.18 6.4 1.44 8.45 3.88 0.67 0.8 1.26 1.69 1.97 2.44q0.03 0.04 0.06 0.06c6.35-1.62 11.82-5.66 18.2-7.13 2.19-0.51 4.8 0.91 5.19 3.17 0.47 2.66 4.05 12.19 7.71 11.36 1.08-0.25 2.44-2.29 3.3-2.98 1.37-1.09 2.64-2.14 4.16-2.99 7.37-4.11 15.59-6.58 24.03-5.16 7.11 1.19 15.66 5.19 19.13 11.88 3.29 6.33-2.77 10.53-4.57 15.96-1.67 5.05-1.12 10.64-4.51 15.08-3.27 4.27-3.95 8.95-6.22 13.63-3.99 8.19-12.76 11.88-17.85 19.18-4.68 6.71-8.31 15.11-11.47 22.66-3.4 8.12-4.83 16.2-3.8 24.96 3.35-10.23 9.2-18.48 15.03-27.42 5.67-8.68 9.77-17.63 17.43-24.89 3.81-3.62 8.52-6.18 12.3-9.98 3.17-3.18 5.89-6.8 9.44-9.59 5.9-4.63 12.74-8.03 20.15-9.39 5.64-1.04 11.01-0.84 16.69-0.93 5.82-0.1 13.16-1.06 17.75 3.21 3.73 3.45 3.81 8.28 2.96 12.97-0.9 5.03-5.39 13.12-0.82 17.25 1.93 1.74 4.16 3.08 6.11 4.78 1.72 1.5 4.64 2.77 6.01 4.57 1.61 2.11 1.95 5.45 1.74 7.99-0.2 2.49-2.85 5.63-2.53 7.79 0.98 6.5 2.87 12.56 2.35 19.25-0.5 6.46-3.13 12.46-3.67 18.85-0.53 6.25 0.4 13.17-3.89 18.32-3.94 4.73-10.49 8.32-16.82 6.27-5.06-1.64-10.22-4.52-14.82-7.25-4.46-2.65-8.11-4.02-13.44-3.56-8.15 0.71-15.93 1.35-23.69-1.95-6.08-2.58-10.88-8.61-17.26-10.24-6.11-1.56-13.59-0.09-18.55 4.01q-1.23 1.01-2.13 2.25c-0.66-0.17-1.34-0.25-2.08-0.3 0.66-0.67 1.69-1.22 2.41-1.7 1.11-0.74 0.33-2.05-0.74-2.2-1.52-0.21-3.06-0.26-4.59-0.42-1.32-0.13-1.01-1.9-0.97-3.14 10.83-9.85 28.16-6.98 41.41-5.04 15.05 2.21 29.83 5.6 45.16 4.02 0.6-0.06 0.74-0.96 0.07-0.99-16.8-0.71-32.05-8.97-49.01-9.22-12.48-0.19-25.26 0.58-36.69 5.76 9-9.73 21.79-14.28 34.83-15.75 13.56-1.52 26.78-4.13 40.25-6.29 0.82-0.13 0.55-1.28-0.23-1.23-15.14 1-29.88-1.27-44.56 3.8-9.6 3.31-18.51 6.66-26.05 12.5 8.15-7.78 18.32-12.71 27.9-19.12 5.39-3.61 9.48-9.19 13.82-13.93 4.6-5.03 10.92-7.8 16.62-11.33 0.24-0.15 0.04-0.45-0.2-0.36-6.22 2.25-11.99 5.49-17.77 8.65-6.27 3.43-11.27 8.23-16.66 12.86-10.4 8.93-22.83 16.64-31.25 27.63q-0.16 0.05-0.3 0.14c-1.15 0.7-2.01 1.65-2.48 2.72q-0.53-0.16-1.06-0.27-0.31-0.39-0.64-0.79c-1.37-1.66-2.31-3.53-2.64-5.65-0.14-0.88-1.69-1.06-2-0.2-0.77 2.17-2.17 4.39-3.03 6.7q-0.38-0.51-0.77-1.02-0.04-0.06-0.09-0.12 0.01-0.14 0-0.3c-0.84-13.61 2.11-27.34 8.96-39.2 4.16-7.2 7.8-14.72 10.65-22.52 3.06-8.35 3.74-17.6 4.36-26.39 0.03-0.42-0.64-0.49-0.72-0.09-1.89 9.3-6.32 17.39-9.83 26.11-3.08 7.65-5.87 15.38-8.05 23.33-2.37 8.63-7.77 17.24-10.17 26.2-2.02-9.83-3.3-19.85-3.11-29.78 0.07-3.92 1.09-7.86 0.82-11.76-0.24-3.49-0.32-6.95-0.36-10.45-0.11-7.6-1.94-14.94-3.11-22.41-0.03-0.14-0.28-0.14-0.27 0.03 0.72 7.74-0.66 15.51-0.9 23.26-0.12 3.92-0.93 7.89-0.8 11.78 0.12 3.98 0.47 7.93 0.52 11.92 0.09 7.51-0.59 14.92 0.64 22.38q0.24 1.4 0.53 2.81c-3.15-5.28-6.83-10.11-8.33-16.18-1.01-4.06-2.01-8.1-2.89-12.18-0.79-3.63-0.66-7.37-1.39-11.01-1.52-7.49-4.26-14.45-6.97-21.57-0.1-0.26-0.54-0.12-0.52 0.14 0.49 7.47 0.76 14.76 2.09 22.15 0.59 3.25 1.82 6.28 2.88 9.39 1.36 4.04 2.08 8.4 3.15 12.53 1.68 6.47 2.85 12.62 6.32 18.4 1.09 1.82 2.39 3.41 3.82 4.91 0.64 2.04 1.8 4.03 2.67 5.51 0.9 1.53 2.78 4.71 4.96 7.09-7.09-2.32-15.42-2.79-21.26-2.85q-0.07-0.05-0.14-0.1c-2.37 0.08-4.79 0.28-7.13 0.09q-1.54-0.13-3.17-0.28 0.15 0.12 0.29 0.24c-5.71-0.04-11.43-0.11-17.13-0.39q-7.51-0.35-14.89-1.75-1.03-0.19-2.13-0.41-3.43-2.41-7.04-4.53-0.07-0.44-0.33-0.94c-1.99-3.81-4.84-15.88 0.36-18.27 1.67-0.77 1.42-2.31 0.42-3.28l-0.03-0.07c-0.52-0.93-1.85-1.35-2.81-0.92-3.08 1.39-6.03 4.49-7.04 7.65-0.55 1.69-0.46 3.01-0.22 4.32q-0.43-0.32-0.87-0.59-0.91-0.53-1.84-0.58-0.44-0.33-0.89-0.66-0.02-0.01-0.04-0.02c0.03-2.14 0.55-4.24 1.14-6.41 1.6-0.41 3.27-2.12 1.96-3.78q-0.14-0.16-0.27-0.32 0.01-0.97-0.23-2.19c-0.54-2.9-5-2.93-5.58 0.01q0 0.01-0.01 0.03c-0.53 0.38-0.95 0.92-1.14 1.6-0.26 0.96-0.41 1.94-0.68 2.89-0.16 0.6-0.07 1.12 0.18 1.56-0.43 1.55-0.81 3.11-0.96 4.72q-0.01 0.3-0.02 0.6c-1.17-0.57-2.29-1.24-3.33-2.07q0.07-0.51-0.09-0.99c0-0.88-0.71-1.65-1.41-2.07q-0.5-0.31-0.87-0.69c0.22-0.66 0.4-1.34 0.62-1.99 0.62-1.88 1.01-3.68 0.82-5.68-0.24-2.59-4.37-3.12-5.1-0.55q-0.22 0.85-0.21 1.71-0.06 0.29-0.15 0.57c-0.59 1.09-0.93 2.46-1.8 3.34-2.26 2.29-0.17 5.29 1.99 7.07q0.04 0.15 0.11 0.32 0.02 0.04 0.04 0.08c0.07 0.92 0.59 1.69 1.38 2.26q0.08 0.09 0.16 0.18c-3.96 2.17-10.78 5.42-9.69 10.5 0.41 1.88 2.75 2.8 4.42 1.92 2.49-1.31 4.41-2.94 6.27-5.03 1.43-1.61 2.36-2.77 3.9-3.5q1.72 1.46 3.47 2.86c-0.65 0.43-1.16 1.06-1.35 1.93-0.45 1.97-3.2 3.27-4.81 4.19q-0.84 0.48-1.57 1.22-0.77-0.03-1.45 0.3c-0.56 0.29-1.02 0.77-1.22 1.38-0.12 0.39-0.13 0.93 0.03 1.37q0 0.02 0 0.04-0.18 0.8 0.06 1.58c0.49 1.55 2.5 2.11 3.86 1.39q0.28-0.15 0.51-0.34 0.06 0 0.12-0.01c0.99-0.23 1.91-1.08 1.89-2.16q0-0.43-0.02-0.87c3.45-1.01 6.87-1.94 8.5-5.22q0.11-0.07 0.23-0.14 0.12 0.28 0.4 0.54c2.68 2.42 0.78 2.58 0.17 5.13-0.33 1.35-0.16 3.09-0.09 4.5 0.01 0.26 0.38 0.38 0.57 0.23 2-1.5 3-1.16 5.06-0.72 0.98 0.22 1.95-0.28 2.48-1.07 0.79-1.18 0.31-2.29 0.07-3.52q0.13 0.1 0.27 0.2c13.49 10.44 30.26 11.3 47.03 9.98q1.29-0.1 2.65-0.23 2.04 0.04 4.08 0.07 0.06 0.05 0.12 0.09 0.15 0.11 0.29 0.21c2.49-0.38 4.93-0.56 5.35-0.55 3.91 0.14 7.18 0.45 10.25 1.36 6.77 1.3 12.25 4.28 17.92 8.28q0.05 0.08 0.1 0.17c1.56 2.86 7.29 1.33 5.93-2.12-1.67-4.22-4.93-6.45-8.68-8.04 0.32-1.53-0.05-2.8-0.7-3.98 0.59-1.54 1.03-3.19 1.7-4.67 0.4 1.83 1.39 3.6 2.49 4.99 0.77 0.97 1.98 1.69 3.28 2.07q0.12 0.15 0.31 0.25 0.33 0.16 0.65 0.29c0.21 0.68 0.8 1.28 1.53 1.6q-0.01 0.26-0.11 0.59c-0.26 0.88-0.49 2.12 0.24 2.88 1.21 1.26 3.15 1.51 5.06 1.58-0.84 0.84-1.4 1.83-0.95 2.83 0.35 0.79 0.89 1.4 1.52 1.86q-0.46 0.32-0.87 0.68c-0.93 0.83-1.61 1.95-2.1 3.18q-0.79 0.28-1.34 0.9c0.25 0.72 0.44 1.45 0.64 2.2 0.25 0.93 0.24 1.49 0.01 2.42-0.05 0.23-0.39 0.17-0.52 0.04-0.43-0.48-0.87-0.92-1.23-1.46-0.22-0.33-0.33-0.86-0.45-1.27q-0.79 0.94-1.47 1.96-0.06-0.09-0.12-0.18-0.08 0.33-0.15 0.68c-0.23 1.25-0.48 2.46-1 3.63-0.73 1.62-3.09 0.83-3.68-0.48-0.44-0.99-0.48-2-0.71-3.05-0.16-0.68-0.31-1.38-0.58-2.03q-0.06-0.17-0.15-0.33-0.05 0-0.11 0c-0.7 0.56-1.45 1.69-1.85 2.17-0.81 0.97-1.91 1.58-2.9 2.36q-0.14 0.11-0.35 0.12-0.25 0.32-0.51 0.62c-0.57 0.6-2.22-0.31-1.7-1.06 1.19-1.73 1.84-3.66 2.1-5.75 0.18-1.48-0.06-2.82-0.21-4.21-1.91-2.98-4.48-5.3-7.96-6.96-5.62-2.68-12.53-1.43-18.49-1.09-0.1 0.01-0.05 0.13 0.03 0.13q0.87 0 1.74 0.03-0.43 0.03-0.84 0.07c-0.26 0.02-0.35 0.34-0.08 0.42 2.09 0.56 4.3 0.83 6.43 1.35 2.33 1.24 4.66 2.49 6.86 4.14 3.37 2.54 5.6 6.19 8.34 9.31q-0.34 0.1-0.69 0.21-0.13-0.14-0.3-0.27c-4.82-3.63-10.02-5.72-15.66-7.76-6.47-2.33-13.06-4.8-19.73-6.53-6.03-1.57-12.22-1.71-18.35-0.8-6.52 0.97-11.86 4.79-18.7 4.98-0.21 0-0.23 0.27-0.01 0.28 4.68 0.32 9.32-0.05 13.97-0.65 6.2-0.8 11.87-0.27 17.97 1.04 5.58 1.2 11.01 2.87 16.6 4.02 6.58 1.34 12.52 4.14 17.77 8.21q-0.2 0.09-0.41 0.18c-7.84 3.55-14.74 8.67-22.77 11.99-3.87 1.6-8.21 1.42-12.12 3.21-3.75 1.71-7.29 3.64-10.67 6.03-6.81 4.81-11.75 12.24-15.37 19.62-0.2 0.41 0.4 0.62 0.64 0.3 9.46-12.74 23.94-19.76 37.98-26.39 6.11-2.88 12.24-5.67 18.57-8 1.73-0.11 3.54-0.49 5.3-0.84q-3.46 1.74-6.58 4.05c-6.21 4.63-10.25 10.97-14.67 17.22-4.45 6.29-8.82 12.62-11.52 19.9-2.88 7.74-3.29 16.61-4.87 24.7-0.07 0.37 0.5 0.36 0.59 0.05 2.2-7.6 5.47-14.5 8.9-21.59 3.06-6.32 4.92-13.11 8.17-19.38 3.57-6.89 9.6-11.32 15.59-15.99 3.36-2.63 6.91-4.96 10.59-7.07q-1.67 2.06-3.15 4.29c-2.02 3.04-3.47 6.82-5.28 10.06-1.89 3.39-3.74 6.84-5.23 10.42-2.89 6.96-4.21 14.11-4.03 21.64 0.2 8.65 1.97 17.61 0.07 26.15-0.03 0.13 0.19 0.21 0.23 0.08 2.05-6.32 2.93-12.75 3.71-19.32 0.91-7.66 2.15-15.24 3.3-22.88 1.15-7.58 3.51-17.04 9.58-22.21 4.39-3.74 9.33-7.79 13.41-12.12-0.71 2.38-1.14 4.88-1.38 7.36-0.85 8.83 2.61 17.13 4.1 25.72 0.33 1.89-0.08 4.24 0.13 6.22 0.24 2.34 0.75 4.52 1.54 6.73 1.6 4.54 3.54 8.84 6 12.99 3.61 6.07 8.66 11.95 14.02 16.55 0.38 0.31 1.15-0.1 0.74-0.54-4.55-4.87-6.88-10.98-9.2-17.11-2.84-7.51-5.41-15.13-9.02-22.3-4.06-8.05-3.57-15.8-2.59-24.59 0.46-4.11 1.08-7.88 2.39-11.47 2.24 10.91 11.34 18.05 18.08 26.9 3.79 4.99 7.95 9.72 12.38 14.16 5.16 5.16 11.17 9.25 15.37 15.27 0.24 0.34 0.91 0.16 0.75-0.29-1.8-5.13-3.99-11.11-7.55-15.29-4.16-4.89-9.46-8.96-14.78-12.5-5.83-3.88-10.49-7.86-13.69-14.17-2.22-4.38-3.55-9.09-4.55-13.89 1.77 0.69 3.66 1.15 5.47 1.43 3.4 0.53 6.96-0.21 10.32 0.61 5.97 1.46 9.53 6.03 11.37 11.59 2.55 7.68 5.88 13.14 12.73 17.68 6.78 4.5 13.57 8.28 19.55 13.83 0.56 0.52 1.61 0.17 1.58-0.66-0.27-7.18-6.53-11.39-12.02-14.9-2.65-1.7-5.36-3.24-7.84-5.19-3.53-2.77-5.92-6.91-8.5-10.49-4.55-6.33-10.91-10.64-17.55-14.37-5.64-3.16-13.2-2.93-16.53-8.9 0.47-0.72 1-1.39 1.67-1.95 2.01-1.69 4.59-2.24 6.9-3.33 3.4 0.38 6.81 0.77 10.1 1.82 4.73 1.5 9.07 4.11 13.26 6.77 1.85 0.57 3.59 1.39 4.97 2.82 0.38 0.39 1.96 2.34 3.39 4.16h0.02q1.31-0.08 2.63-0.15c2.41-0.12 4.84-0.23 7.26-0.19 8.35 0.16 21.33 1.14 26.16 9.35 1.02 1.74 1.61 3.82 2.73 5.48 0.94 1.37 1.74 0.98 3.67 0.57 4.07-0.86 7.97-1.62 12.04-0.35 1.81 0.56 4.11 2.21 3.77 4.43-0.8 5.25-3.92 9.19-3.98 14.66zm-167.23-82.2c-0.36-0.18-0.97 0.33-0.56 0.62 4.71 3.27 8.7 7.52 12.95 11.34q0.34 0.31 0.69 0.61c2.95 0.04 5.92-0.11 8.87-0.27q-2.32-1.65-4.69-3.25c-5.43-3.66-11.49-6.02-17.26-9.05z"/>
					<path fill-rule="evenodd" class="s3" d="m36.4 195.98q0 0 0 0 0 0 0 0zm-0.01-0.01c-2.73 2.36-2.22 8.02-1.32 11.43-7.3-4.79-15.26-9.03-23.25-11.85q-0.2 0.73-0.42 1.47c-0.44 0.24-0.74 0.66-0.78 1.31-0.28 4.41-4.33 6.76-7.87 9.34-3.25 2.38-6.29 4.91-9.53 7.3q-0.93 0.68-1.88 1.36c-0.96-0.85-1.5-2.04-0.95-3.21q1-2.16 1.98-4.33c2.74-3.89 5.02-8.01 6.54-12.36 0.29-0.84-0.02-1.78-0.64-2.56q0.18-0.55 0.36-1.1c-3.88-1.01-7.71-1.95-11.44-2.88-20.58-5.14-40.19-5.95-58.92-4.56-9.36 0.69-18.77 1.74-27.2 3.88-8.43 2.13-16.26 5.04-23.73 8.27-10.67 4.61-20.15 10.29-29.83 15.8q-0.63 0.72-1.17 1.49-0.23 0.32-0.47 0.63c-3.61 1.53-7.42 2.76-11.49 3.63q-0.02-0.04-0.05-0.09 1.36-1.33 2.64-2.72 1.9-1.36 3.84-2.69c1.28-1.52 2.81-2.87 3.89-4.02 5.08-5.36 10.22-10.69 16.18-15.45 11.33-9.02 26.96-14.27 43.55-17.89 11.46-2.48 23.8-3.54 36.76-3.08q-10.03-1.69-19.95-2.81c-23.09-2.61-45.59-2.5-65.9 1.09-9.78 1.73-18.86 4.39-28.02 6.95-7.68 2.15-14.18 5.66-21.67 8.03-4.06 1.28-8.41 2.14-13.1 2.31-2.79-0.09-5.62-0.32-8.52-0.78q-0.51-0.08-1.03-0.16c-0.44-0.36-0.71-0.83-0.8-1.3 3.8-3.74 7.73-7.4 11.35-11.27 7.69-5.91 15.98-11.36 25.02-16.12 14.98-7.88 32.68-12.52 53.06-13.3 23.2-0.89 47.65 2.78 72.1 9.47 12.08 1.95 24.18 4.65 36.37 7.95-0.5-4.91-2.06-9.98-4-15.07-6.98-4.38-14.22-8.48-21.53-12.36-21.27-11.28-43.65-20.94-65.78-30.43q-8.85-3.78-17.68-7.65c-5.87-2.58-12.02-5.1-17.54-8.29-9.35-5.41-18.48-10.41-27.29-16.48-1.48-1.02-2.89-2.04-4.36-2.95q-0.08-0.03-0.15-0.05-0.97-0.79-1.94-1.57-1.37-1.11-2.75-2.29c9.66 3.12 19.6 4.79 29.22 6.74 11.27 2.29 22.75 6.26 33.88 10.2 21.68 7.66 43.94 17.33 63.55 29.36q4.62 2.84 9.02 5.89-1-1.07-2-2.14c-14.26-15.04-33.04-27.33-52.09-38.63-39.06-23.17-84.45-40.79-127.26-44.8q-0.52-0.04-1.04-0.08-0.2-0.01-0.36-0.09 2.84-1.09 5.91-1.91 0.22 0 0.44 0.01c7.25-1.36 15.6-0.56 23.98 0.53 10.54 1.37 20.86 2.85 31.57 5.44 22.92 5.55 45.33 14.76 67.13 24.94 15.78 7.37 31.35 15.83 44.5 26.4 13.13 10.56 22.53 22.86 28.85 35.44 2.72 5.41 5.03 10.92 7.22 16.39q5.66 5.11 11.05 10.3 3.64 3.49 7.25 6.99 1.38 1.06 2.73 2.13 0.07 0.05 0.14 0.11c-3.66-16.26-15.29-32.96-26.82-48.72-12.36-16.91-25.44-33.84-41.96-49.36-15.78-14.84-36.03-26.93-56.31-37.41-14.69-7.59-29.54-14.82-45.25-19.68-15.85-4.92-31.78-7.77-47.66-11.59q-2.64-1.13-5.24-2.35 0.09-0.17 0.23-0.32 0.03-0.18 0.1-0.34c0.88-0.26 1.69-0.48 2.17-0.65q0.12-0.05 0.23-0.1c9.96-1.85 41.95 7.07 46.31 8.16 13.21 3.31 26.43 6.95 39.62 10.8 9.09 2.66 18.13 5.13 26.83 9.29 21.72 10.39 42.79 22.42 61.47 36.58 16.77 12.72 28.83 27.59 37.91 43.06q5.6 9.53 9.58 19.12 1.19 1.91 2.32 3.83c6.76 11.59 10.24 23.92 11.31 35.18 0.54 5.74 0.04 11.16-0.43 16.64q-0.22 2.58-0.44 5.16c6.64 6.43 14.13 12.46 20.89 18.83q0.38 0.3 0.76 0.61zm-42.64-28.91c2.65 0.8 5.46 1.69 8.32 2.67q-0.01-0.37-0.02-0.75-5.21-5.14-10.42-10.28-1.03-0.78-2.07-1.54 0.61 2.09 0.8 4.16c0.15 1.74-1.55 2.59-3.28 2.43q0.05 0.69 0.07 1.36 3.3 0.95 6.6 1.95z"/>
					<path fill-rule="evenodd" class="s3" d="m34.71 149.25c-0.67-13.93-0.48-27.99-2.66-41.82-4.25-27.04-18.78-50.74-33.92-72.99-14.76-21.67-28.85-45.47-48.36-63.26-9.47-8.63-20.8-14.81-31.87-21.12-10.63-6.06-21.07-14.34-32.77-18.14-0.44-0.14-1.01 0.29-0.5 0.64 19.61 13.57 37.98 29.5 53.58 47.6 16.38 19 30.13 40.13 43.5 61.31 13.24 20.96 26.9 44.01 31.51 68.63 2.31 12.35 3.94 24.71 7.37 36.83 1.65 5.79 2.86 11.58 3.81 17.59 1.21 7.67-0.44 15.67-0.68 23.38-0.11 3.68 6.91 3.45 7.64 0.21 1.41-6.33 1.97-12.83 2.37-19.29 0.41-6.6 1.3-12.92 0.98-19.57z"/>
					<path fill-rule="evenodd" class="s3" d="m60.9 63.48c-3.33-21.28-7.88-42.55-15.93-62.83-8.15-20.55-21.31-38.61-34.35-56.7-0.52-0.73-2.52-0.56-1.91 0.44 10.5 17.19 16.34 38.02 20.83 57.11 4.78 20.33 10.44 40.29 13.29 60.95 3.23 23.36 3.72 46.92 2.74 70.4-0.97 23.47 3.02 47.01-2.93 70-0.52 2.02 3.8 2.49 4.62 0.84 2.34-4.73 3.88-9.52 5.33-14.54 1.73-5.97 4.33-11.76 5.27-17.9 1.93-12.69 5.26-24.86 5.91-37.76 1.19-23.38 0.76-46.77-2.87-70z"/>
					<path fill-rule="evenodd" class="s3" d="m19.01 356.59c-2.66-3.81-7.11-4.91-10.68-7.74-3.67-2.92-6.99-6.26-10.69-9.14q-2.92-2.31-5.75-4.69-1.26-1.25-2.49-2.51c-8.31-8.56-16.5-17.2-25.84-24.56-9.09-7.17-19.21-12.58-29.82-16.94-5.74-2.35-12.05-3.39-18.12-4.45-6.5-1.13-12.85-2.71-19.31-4.07-2.43-0.51-3.97 1.5-3.05 3.16 5.41 0.94 11.26 5.08 15.39 7.92 6.13 4.2 11.17 10.28 16.45 15.53 3.45 3.43 6.91 6.88 10.48 10.19 2.77 2.07 5.68 3.95 8.82 5.55 4.11 2.08 8.26 4.09 12.41 6.08q2.36 1.35 4.75 2.64c4.12 2.2 8.52 4.58 13.1 6.11q0.08 0.04 0.16 0.08 13.77 7.07 27.96 13.19 0.7 0.67 1.42 1.32c3.42 3 5.24 6.05 9.68 7.24 2.54 0.69 7.44-1.59 5.13-4.91z"/>
					<path fill-rule="evenodd" class="s3" d="m-16.4 315.48q0.49-0.54 1.11-0.84c7.18-3.41 15.1-6.13 22.07-10.13-2.04-2.78-4.11-5.54-6.29-8.22-14.48-17.78-34.03-31.8-55.6-38.67q-0.01 0-0.02-0.01c-1.6-1.27-4.81 0.24-2.75 1.93 3.06 2.52 5.66 5.37 7.97 8.43 0.79 2.1 1.87 4.06 3.05 5.97 10.76 12.96 17.67 29.81 30.26 41.37q0.1 0.08 0.2 0.17z"/>
					<path fill-rule="evenodd" class="s3" d="m17.52 319.41q-0.31-0.43-0.61-0.85c-7.52 3.17-15.6 4.97-23.72 4.89 4.42 3.36 8.99 6.51 13.63 9.53 4.88 2.21 9.74 4.48 14.31 7.18 3.44 3.16 7.04 6.1 11.15 8.24 0.55 0.28 1.39 0.41 2.28 0.4q1.57 0.84 3.21 1.46c1.86-0.86 3.75-1.63 5.63-2.36-11.35-6.27-19.95-16.19-25.88-28.49z"/>
					<path fill-rule="evenodd" class="s3" d="m24.84 510.55c-2.36-5.07-6.27-9.11-8.48-14.3-2.01-4.71-3.26-9.6-4.18-14.57q-0.33-1.04-0.61-2.1c-2.77-11.25-4.48-22.72-7.3-33.96q-0.27-1.01-0.55-2.01-2.81-6.56-6.1-12.89c-6.43-12.34-14.37-23.63-19.15-36.54-2.05-3.46-4.17-6.87-6.39-10.16-1.37-0.44-2.96-0.02-2.5 1.78 3.02 11.77 5.35 23.16 6.88 35.27 1.35 10.65 2.93 21.36 7.18 31.19 1.44 3.3 3.15 6.47 4.97 9.57 1.17 3.12 2.54 6.14 4.18 8.99q0.33 0.99 0.67 1.97c0.82 2.32 1.81 4.56 2.87 6.76 4.33 6.96 8.94 13.76 13.96 20.16 3.02 3.84 6.3 7.96 10.51 10.47 1.4 0.83 2.85 1.52 4.31 2.14q0.17-0.11 0.32-0.23-0.24-0.78-0.59-1.54z"/>
					<path fill-rule="evenodd" class="s3" d="m62.74 504.19q-0.04-0.37-0.46-0.75c-4.74-4.17-11.14-6.02-16.09-10.22-2.29-1.94-4.39-4.13-6.33-6.49-2.15-3.67-3.57-7.89-4.88-11.88-3.77-11.49-6.85-23.23-10.84-34.64-3.63-10.37-11.06-18.6-17.36-27.26-1.53-2.1-2.86-4.32-4.1-6.6q-1.03-3.09-1.93-6.22c-2.19-7.7-5.67-19.37-4.21-27.35 0.18-0.97-0.82-1.56-1.73-1.55-0.34-0.26-0.86-0.36-1.31-0.28-0.28-0.07-0.61-0.03-0.82 0.18-2.72 2.62-3.19 6.21-2.93 9.88-1.07 4.95-0.68 9.92 0.59 14.73 0.93 8.16 3.11 16.35 4.75 23.77 2.93 13.3 6.81 26.23 12.41 38.57 10.14 22.31 25.4 45.99 51.02 47.14q0.99 0.32 1.98 0.51c0.5 0.09 1.19-0.12 1.67-0.48q0.04 0 0.08 0c0.7-0.03 0.76-0.62 0.49-1.06z"/>
					<path fill-rule="evenodd" class="s3" d="m17.62 410.71c0.8 7.49 2.42 14.78 4.88 22.03 3.69 10.89 8.8 21.26 14.05 31.4 1.86 3.57 3.78 7.16 5.91 10.61 6.49 9.53 13.88 18.46 22.72 25.39q0.01-0.29-0.1-0.63c-1.95-5.82-4.59-11.18-6.04-17.19-0.58-2.41-1.03-4.86-1.42-7.31-0.85-4-1.66-8.01-2.72-11.97-1.98-7.38-4.31-14.66-6.77-21.88-5.05-14.83-11.93-28.55-18.37-42.72-3.72-8.17-6.06-16.13-7.51-24.48q-0.32-1-0.61-2.01c-0.21-3.72-0.65-7.39-1.54-10.92q-0.09-0.29-0.26-0.54-0.01-0.28-0.02-0.55c0-0.27-0.52-0.45-0.62-0.16q-0.01 0.03-0.02 0.06c-1.58-1.06-4.56-0.77-4.52 1.35 0.26 12.58 0.45 25.34 1.2 37.9 0.24 3.93 0.87 7.8 1.75 11.62z"/>
					<path fill-rule="evenodd" class="s3" d="m35.44 387.27c-0.45 14.53 1.4 27.91 5.3 41.79 3.68 13.15 8.01 26.34 12.33 39.27 3.1 6.53 6.41 12.99 10.42 18.8 4.04 5.85 8.59 9.72 14.11 11.36q0.4-0.34 0.6-0.8c-11.75-17.02-15.33-41.38-17.39-60.92-1.5-14.27-2.34-28.74-4.99-42.83-1.67-8.91-4-17.76-7.29-26.16-1.75-4.48-3.95-8.56-5.37-13.02q-0.37-0.98-0.7-1.97-0.45 0.04-0.89 0.13-0.38-1.76-0.87-3.45c-0.08-0.27-0.64-0.51-0.82-0.21-3.03 5.04-3.33 11.11-3.55 16.88-0.28 7.04-0.66 14.08-0.89 21.13z"/>
					<path fill-rule="evenodd" class="s3" d="m34.76 347.57c-11.81 5.27-23.67 10.07-35.14 16.13-12.6 6.66-24.59 14.42-36.17 22.86-11.09 8.09-21.72 17.16-31.67 26.71-9.29 8.93-18.87 19.07-25.08 30.59-0.13 0.23 0.29 0.48 0.46 0.32 19.12-19.37 38.62-38.11 61.02-53.44 22.28-15.25 46.14-26 70.57-36.71 5.38-2.36 0.39-8.41-3.99-6.46z"/>
					<path fill-rule="evenodd" class="s4" d="m38.59 304.3c0.13 0 0.12 0.18 0 0.18-0.13 0-0.13-0.18 0-0.18z"/>
					<path fill-rule="evenodd" class="s4" d="m66.67 298.86q-0.02 0-0.03 0 0.02 0 0.03 0z"/>
					<path fill-rule="evenodd" class="s4" d="m66.82 298.87q-0.03 0-0.07-0.01-0.04 0-0.08 0 0.07 0.01 0.15 0.01z"/>
					<path fill-rule="evenodd" class="s4" d="m66.64 298.86q-0.16-0.01-0.32-0.05c-0.42-0.11-0.61-0.01 0.32 0.05z"/>
					<path fill-rule="evenodd" class="s4" d="m-20.76 289.72c-10.54-6.5-12.47-19.05-15.12-30.16-0.78-3.28 3.14-5.29 5.88-4.84 4.74 0.79 7.95-1.47 12.25-2.87q1.06-0.3 2.06-0.75-0.46-0.5-0.85-1.06c-2.68-3.79-5.31-8.01-5.34-12.8-0.06-8.44 9.4-9.27 16.51-7.24 6.6 5.18 12.58 9.49 21.11 12.28 8.89 2.9 17.68 5.5 26.13 9.59 5.29 2.55 10.14 6.03 15.15 9.17q0.39 0.35 0.79 0.69c3.11 2.65 6.81 5.48 10.91 7.18 1.28 0.53 3.05 1.56 4.6 0.91-1-5.61-4.52-9.51-8.18-13.9-1.96-2.35-4.58-4.36-7.46-5.78-5.94-2.92-12.22-5.13-18.7-9-7.32-4.38-13.84-9.25-21.26-13.12-0.74 0.09-1.51-0.02-2.09-0.34-4.6-2.57-7.5-8.18-4.45-13.23 1.44-2.4 3.63-4.97 4.13-7.8q0.1-0.57 0.15-1.15c-3.17-4.5-7.8-11.46-2.28-15.29 5.04-3.48 11.17-1.96 16.53 0.03 2.17 0.81 11.5 5.46 12.73 3.08 1.65-3.2 1.54-6.83 3.25-9.97 1.82-3.34 7.02-3.87 10.26-2.95 5.75 1.64 2.11-0.47 3.15-4.55 2.07-8.1 11.08-4.12 15.7-0.69 7.81 5.8 12.15 14.04 15.19 23.11 2.77 8.24 5.35 16.15 4.89 24.55q0.38 1.01 0.75 2.02c-0.19 1.31-0.28 2.61-0.15 3.71 0.3 2.61 1.24 5.03 1.44 7.71 0.19 2.7 0.13 5.43 0.29 8.19 0.07 1.28 0.55 2.52 0.53 3.8-0.07 3.03-0.56 5.29 0.63 7.68-0.47 1.67-3.41 4.14-1.31 5.3 2.07-2.88 4.89-5.64 6.21-8.96 1.91-4.79-2.39-8.31-3.09-11.84-0.96-4.82 5.82-8.21 4.58-12.46-0.34-1.2-1.84-2.15-2.54-3.16-0.76-1.1-1.36-2.58-1.78-3.97q0.06-2.32-0.02-4.64c-0.07-1.93-0.35-3.84-0.71-5.73 0.11-0.41 0.22-0.82 0.49-1.23 1.1-1.7 3.29-1.93 3.78-3.99 0.39-1.64-1.15-3.96-1.85-5.59-1.85-4.37-2.31-7.03-2.85-11.97-0.25-2.26-0.56-4.94-0.1-6.71 0.39-1.52 2.73-5.79 3.72-6.64 1.19-1.01 4.82-1.59 7.15-1.6 8.12 0 14.75 6.08 22.23 6.58 3.6 0.23 9.91-3.28 13.27 0.35 1.28 1.39 0.98 5.64 1.25 7.66 0.37 2.73 0.16 6.02 0.53 8.05 0.62 3.36 3.35 4.41 6.45 6.51 3.51 2.39 6.65 5.31 8.5 8.52 1.06 1.83 1.65 3.7 3.04 4.92 2.57 2.24 5.88 2.29 7.79 4.66 2.86 3.56-0.8 7.23-2.98 9.69-1.02 1.15-2.37 1.98-3.13 3.16-1.83 2.82-0.87 5.83-1.16 8.98-0.49 5.26-2.05 7.94-3.59 12.55-0.69 2.06-1.01 5.38-2.15 7.49-1.02 1.9-3.43 2.58-5.33 3.74-7.93 1.02-16.43-1.16-23.92 0.04-1.16 0.19-2.47 0.7-3.72 0.96-2.51 0.51-4.78 0.86-6.24 2.67-1.71 2.12-1.35 4.74-2.76 7.52-0.74 1.46-2.65 1.7-3 3.39 1.82 0.78 3.4-0.29 5.03-0.58 4.98-0.9 10.65-2.85 15.71-3.2 5.14-0.36 11.32 3.25 15.6 1.43 1.24-0.53 2.15-1.5 2.9-2.65 5.53 0.22 12.64-2.81 16.6-3.47 5.28-0.89 10.22-0.35 14.53 2.28 0.4 1.19 1.08 2.48 1.97 3.41 1.46 1.56 3.97 2.76 4.81 4.42 1.59 3.16-0.72 7.13-0.97 10.46q0.05 0.33 0.12 0.65 0.32 0.24 0.67 0.47c2.25 1.42 4.06 3.04 5.58 5.23 2.92 4.22 2.13 8.92-1.5 12.26-0.68 0.63-1.55 1.09-2.47 1.44-2.99 0.2-5.52 1.47-7.31 4.03-0.74 1.05-0.79 2.53-0.75 3.73 0.11 2.93 1.31 5.5 1.17 8.51-0.1 2.45-0.57 5.08-1.54 7.45q-0.45 0.46-0.96 0.9c-2.22 3.89-6.7 5.3-11.06 6.06-0.41 1.51-0.92 2.98-1.7 4.28q-0.09 0.15-0.19 0.29c-7.78 6.81-24.38 6.12-28.84 16.06q-0.9-1.12-1.85-2.17c-3.96-4.31-7.7-6.87-10.61-11.76-1.33-2.23-3.44-4.31-4.23-6.48-0.79-2.2-0.02-4.44 0.69-6.85-2.59-7.3-4.49-14.32-8.96-20.74-1.21-1-2.45-1.98-3.64-2.97-5.69-4.74-11.71-11.49-21.31-12.6 3.01 8.71 10.98 15.18 15.85 23.19 3.8 6.25 5.43 13.71 4.39 22.13-1.97 2.95-1.09 7.06-0.14 9.69 1.06 2.88 4.68 5.53 6.15 9.66 0.74 2.06 0.86 4.77 1.6 7.15 0.78 2.51 2.28 4.57 2.81 6.48 1.38 4.94-2.34 5.89-5.52 6.52-0.53 2.54-3.56 2.62-5.84 3.4-5.09 1.73-10.16 3.94-14.48 5.98-4.43-1.19-8.06-0.92-11.5-0.87-2.11 0.03-4.34-0.35-6.05-0.11-0.85 0.12-1.83 1.02-2.73 1.05-0.24 0-0.51-0.19-0.75-0.22-3.16-0.36-8.63-4.15-10.38-6.22-1.01-1.19-1.22-2.99-2.11-4.29-8.03 0.32-17.5-1.9-22.55-7.86-3.1-3.67-5.42-8.33-10.03-10.32-3.14-1.35-6.14-2.57-9.05-4.17-2.98 1.59-8.28-1.99-5.61-4.88 1.63-1.77 3.43-3.32 5.4-4.56 0.99-0.95 2.45-1.99 3.57-2.61 1.3-1.24 2.97-2.25 4.42-2.65 6.38-1.78 11.78-2.74 15.26-9.13 2.23-4.07 4.28-8 7.78-11.15 1.78-1.6 3.85-2.87 5.61-4.48 1.95-1.79 3.38-3.88 5.44-5.52 1.54-1.87 3.14-3.69 4.34-5.83 0.37-0.66 0.84-1.43 1.33-2.24q0.48-3.63 0.25-7.43-0.69-1.37-1.74-2.39c-0.22 0.15-9.44 8.78-14.61 10.81-2.16 2.27-4.37 4.01-7.02 6.09-1.24 0.98-3.88 2.57-5.65 4.16q-1.94 1.13-3.95 2.13c-8.1 3.98-17.15 5.89-26.06 6.94q-0.47 0.05-0.94 0.09c-3.72 0.56-7.55 0.86-11.55 0.88-7.03 0.03-18.85-3.1-12.44-12.42 1.31-1.9 2.96-3.69 3.89-5.83 1.48-3.39-0.16-7.87-0.28-11.5-0.1-3.51 0.19-6.62-4.05-7.66-2.23-0.55-4.45-1.14-6.43-2.36zm157.17-86.07c3.04-0.56 2.51-5.31-0.72-4.72-3.04 0.57-2.51 5.32 0.72 4.72zm-4.87-1.49c2.53-0.47 2.49-4.5-0.24-4-2.52 0.47-2.49 4.5 0.24 4zm-34.9 68.27c-2.59 2.11-5.13 4.13-7.95 5.83-2.69 1.62-6.13 2.49-8.03 5.4 0.29 0.63 1.44 1.13 2.33 1.07 5-0.34 10.4-5.85 14.59-7.78 0.72-0.87 1.71-1.26 2.43-2.14 6.02-2.86 11.28-10.58 16.13-16.66 2.13-2.68 4.09-5.66 6.1-8.58 1.55-2.24 3.06-4.47 4.4-6.85q0.28-0.2 0.51-0.53c2.31-3.43 3.87-7.34 4.86-11.43q0.16 0 0.32 0c0.82-0.06 1.47-0.39 2.18-0.75 0.16-0.08 0.26-0.27 0.22-0.45-0.32-1.23-0.9-2.3-1.93-2.88q0.19-1.33 0.3-2.68c0.78 0.1 1.7-0.12 2.27-0.42 0.79-0.42 1.43-0.97 2.08-1.53-0.08 0.79 0.33 1.64 1.23 1.74q0.08 0.01 0.16 0.02c1.11 0.12 2.25-0.63 2.26-1.82 0.01-1.06-1.21-1.97-2.23-1.49q-0.27 0.12-0.55 0.25-0.11-0.12-0.3-0.13c-0.95 0-1.93 0.03-2.87 0.18-0.47 0.07-1.19 0.14-1.85 0.32q0.06-1.36 0.06-2.7c0.77-0.92 1.39-1.95 2.1-2.91 0.45 0.32 1.04 0.46 1.62 0.35 1.18-0.22 2.14-1.33 2.01-2.55-0.11-1.12-1.12-1.85-2.19-1.78q0.14-0.29 0.22-0.6 0.44 0.31 1.05 0.43 0.77 0.12 1.48-0.14 0 0.01-0.01 0.01 0.04-0.02 0.08-0.04 0.27-0.11 0.52-0.26 0.09-0.05 0.17-0.11 0.27-0.19 0.5-0.42 0.02-0.02 0.05-0.04 0.04-0.06 0.08-0.11 0.11-0.14 0.21-0.28 0.05-0.08 0.1-0.16 0.04-0.06 0.08-0.12 0.05-0.1 0.09-0.21 0.04-0.09 0.08-0.18 0.02-0.07 0.04-0.15 0.12-0.37 0.14-0.77 0-0.02 0.01-0.04 0-0.06 0.01-0.12-0.01-0.07-0.02-0.14c-0.02-0.72-0.26-1.43-0.84-1.85q0 0.01 0 0.02c-0.54-0.53-1.27-0.83-2.05-0.69q-0.37 0.08-0.74 0.16c-1.15 0.3-1.83 1.25-2.04 2.29-0.48-0.41-1.09-0.64-1.86-0.57-0.97 0.09-1.87 0.67-2.41 1.49-0.18-0.2-0.41-0.35-0.68-0.4q-0.35-0.14-0.73-0.08c-0.69 0.14-1.1 0.71-1.08 1.39 0.02 0.75 0.65 1.16 1.34 1.19q0.37 0 0.69-0.18c0.06 0.79 0.42 1.47 0.96 1.93q-0.42 1.25-0.8 2.48c-0.68-1.2-1.61-2.31-2.59-3.27q0.02-0.04 0.03-0.09c0.16-0.7-0.21-1.63-0.83-2-0.3-0.17-0.56-0.27-0.84-0.35q2.03-0.66 2.49-2.33c0.51-1.81-0.99-3.58-2.85-3.41q-0.39 0.04-0.74 0.17 0 0 0-0.01-0.01 0.01-0.03 0.02-0.13 0.06-0.26 0.13-0.23 0.1-0.45 0.23-0.09 0.08-0.18 0.16-0.21 0.16-0.4 0.35-0.01 0.01-0.01 0.01-0.02 0.03-0.03 0.05-0.22 0.24-0.37 0.53-0.03 0.04-0.06 0.08-0.08 0.13-0.14 0.3-0.02 0.07-0.05 0.15-0.05 0.15-0.09 0.32-0.03 0.09-0.04 0.2c-0.14 0.69-0.1 1.47 0.34 1.92l0.02-0.04c0.33 0.55 0.84 0.97 1.44 1.18-0.88 0.35-1.49 1.35-1.41 2.3q-0.01 0.23 0.01 0.46c0.12 0.97 0.89 1.71 1.87 1.78 0.6 0.05 1.13-0.14 1.56-0.47 0.35 1.32 0.64 2.66 1.08 3.94 0.29 0.83 0.94 1.12 1.58 1.06q-0.14 0.55-0.29 1.11-0.24-0.3-0.47-0.57c-0.78-0.92-1.75-1.51-2.7-2.23-0.24-0.19-0.63 0-0.49 0.33 0.39 0.97 0.78 1.92 1.36 2.8 0.54 0.83 0.76 1.93 1.63 2.37q-0.19 0.81-0.39 1.65-0.2 0.82-0.42 1.62-0.13-0.28-0.24-0.49c-0.51-0.93-1.88-0.91-2.65-0.39q-0.24 0.17-0.42 0.4c0.06-1.22-0.76-2.42-2.4-2.11-2.79 0.51-2.52 4.91 0.46 4.36 0.65-0.12 1.13-0.46 1.45-0.89 0.01 0.46 0.18 0.9 0.6 1.2q0-0.01-0.01-0.02 0.2 0.17 0.41 0.34c0.31 0.25 0.63 0.53 0.98 0.75-0.22 0.87-0.75 1.53-1.44 1.98q0.13 0.43 0.18 0.88c-1.7 4.53-3.69 9.36-5.77 12.34-6.03 12.32-14.42 21.14-23.33 28.37zm25.95-52.83c0.04 1.12 1.13 1.86 2.19 1.71 1.27-0.18 2.3-1.52 1.85-2.79q-0.02-0.07-0.05-0.14c-0.77-2.23-4.08-1.07-4 1.05q0.01 0.08 0.01 0.17zm15.99 7.28q0 0 0 0 0 0 0 0zm0 0q-0.01 0.01-0.02 0.02 0.06-0.29 0.03-0.59c-0.14-1.24-1.33-1.98-2.51-1.77q-0.78 0.49-1.55 0.98c-0.96 1.07-0.45 2.9 0.89 3.35 0.56 0.18 1.18 0.13 1.72-0.12q0.25-0.11 0.51-0.31 0.03-0.03 0.06-0.06c0.47-0.38 0.88-0.94 0.87-1.5zm-1.36 2.5c-0.95 0.17-1.81 0.82-1.82 1.88 0 0.9 0.88 1.77 1.82 1.6 0.95-0.18 1.81-0.82 1.82-1.88 0-0.91-0.88-1.78-1.82-1.6zm-68.81 24.22c2.81 3.62 5.43 7.14 6.95 11.11 1.09 2.86 1.45 5.58 1.68 8.99 0.85 0.3 1.29-0.12 2.03-0.02 2.19 1.95 4.8 2.91 6.82 0.94 1.1 0.54 1.92 1.25 2.68 1.98 10.42-5 20.79-17.33 22.5-31.85-2.8 1.01-3.96 4.98-6.51 6.44 0.45 4.61-3.83 8.81-6.05 12.65-0.55 0.95-1.14 1.91-1.61 2.79-1.27 2.33-2.1 5.15-5.38 3.93-3.28-1.22-1.42-9.17-0.98-12.85 0.95-8 1.07-16.83-0.57-24.88-2-9.84-3.93-17.49-8.01-25.81-0.48-0.96-0.94-2.49-2.27-2.68-0.32 8.23 1.59 15.9 3.78 23.59 1.05 3.68 1.69 7.68 2.53 11.66 1.77 8.38 4.06 17.67 0.57 27.72-3.16-3.29-2.71-8.88-3.61-13.59-0.57-3.02-1.53-5.99-2.29-8.97-1.48-5.81-3.35-11.5-6.52-16.86-4.55-7.72-10.1-14.9-16.46-21.74-1-1.07-2.15-2.32-3.29-3.38-0.71-0.65-1.54-1.64-2.54-2.09q-0.36 0.47-0.73 0.92c5.39 11.81 12.88 22.34 18.55 34.12 3.77 7.85 7.62 15.47 10.57 23.91-3.07-1.82-4.51-5.3-6.57-8.17-4.13-5.74-8.46-11.23-14.14-16.41-6.24-5.7-13.3-11.91-23.91-14.15 0.12 1.89 2.18 2.5 3.42 3.61 3.18 2.87 6.34 6.34 10.02 9.57 3.46 3.02 7.22 6 10.51 9.29 3.22 3.21 6.15 6.78 8.83 10.23zm-62.87 65.88c-1.43 0.4-3.25 0.34-4.31 1.6 1.53 1.29 3.73 0.61 5.51 0.57 5.15-0.12 9.27-0.39 13.81-1.52 2.62-0.65 5.19-1.2 7.63-1.86 4.92-1.34 9.61-3.87 13.92-6.15 4.56-2.41 8.95-4.65 13.25-7.35 3.14-1.96 9.66-8.37 12.74-8.28q0.01 0 0.01 0c10-0.73 9.82 19.75 8.17 25.38-1.66 5.65-3.97 11.1-6.28 16.54q-0.63 1.69-1.29 3.22-0.22 0.5-0.47 0.97-0.74 1.79-1.45 3.59c-1.53 3.88-3.93 7.8-7.04 10.85 0.11 0.04 0.23 0.05 0.32-0.04 12.14-11.42 19.63-29.3 20.49-46.29q0.25-1.13 0.49-2.22c1.43 1.91 1.47 4.66 1.6 7.14 0.39 7.37-0.17 15.99 0.62 23.28 0.02 5.84-0.03 12.19-0.73 18.84-0.2 1.91-0.83 3.99-0.01 5.67 1.55-0.37 1.5-2.34 2.01-3.48 3.41-7.61 6.48-15.83 7.67-23.94 0.86-5.77-0.35-11.69-1.4-17.02-1.08-5.48-2.72-10.73-4.83-14.96 2.37 2.62 3.94 7.05 5.69 10.55 2.56 3.74 5.49 7.5 8.55 11.16 0.94 1.12 1.91 2.61 3.4 3 0.23-2.73-1.49-5.2-2.48-7.6-3.03-7.26-7.69-14.22-11.34-21.28 1.17-0.83 2.98-0.34 4.31-0.18q1.67 0.19 3.36 0.54c-0.85-1.22-1.16-2.71-0.32-3.74 2.02 1.66 3.39 4.01 5.57 5.56 3.73 2.64 8.73 4.32 12.93 6.1 9.22 3.93 14.31 11.08 21.86 17.24 0.41 0.33 1.03-0.17 0.66-0.61-4.97-5.82-9.08-11.88-15.46-16.29-4.02-2.78-8.29-5.77-11.95-8.99-2.19-1.92-4.01-3.24-6.58-4.65-1.02-0.55-2.26-0.66-3.51-0.82q0.12-0.15 0.24-0.3 0.58-0.39 1.1-0.84c0.2 0.77 0.73 1.44 1.74 1.73 8.79 2.56 17.44 6.07 26.52 7.43 9.79 1.46 18.39 0.68 28.14-0.63 0.2-0.03 0.29-0.32 0.1-0.42-7.86-3.99-18.03-2.91-26.59-4.07-8.24-1.13-15.58-4.16-23.34-6.66 4.01 0.13 7.98 0.33 12.03-0.15 0.45-0.05 0.84-0.25 1.15-0.53 11.9 1.05 24.95 1.43 35.35-5.06 0.13-0.08-0.01-0.25-0.13-0.19-11.99 5.16-24.04 3.38-36.37 0.79-0.61-0.13-1.16 0.09-1.61 0.47-5.01-0.23-10.01-0.41-15.03-0.45-0.5-0.01-0.93 0.13-1.3 0.35-1.67-0.5-2.92-1.35-3.19-3.12 5.97-5.99 13.09-9.91 20.05-14.12 8.34-5.89 17.21-11.37 24.24-20.21 0.9-1.13 2.32-2.42 2.17-4.04-1.99 0.43-3.4 2.12-4.98 3.24-4.68 3.3-9.02 7.45-13.71 11.07-3.13 2.41-6.01 5.1-9.19 7.29-3.19 2.21-6.8 3.62-9.84 6.1-3.39 1.42-6.53 3.89-9.8 5.9-1.94 1.2-4.06 2.36-5.25 4.17 0.02 2.17 4.17 1.19 4.87 2.81-0.41 1.73-4.41 3.05-3.14 6-4.23-0.07-8.02 3.39-8.33 8.55-4.52-2.36-12.62-2.23-10.05-8.75-3.32-2.89-6.14-6.05-6.49-10.58 2.03-1.35 6.3 1.34 7.92-0.77 0.55-4.94-5.47-2.24-8.43-2.41-0.94-0.06-2.18-0.3-3.11-0.49-2.04-0.41-4.19-0.71-6.34-1.2-16.48-3.79-33.46-12.77-47.56-16.47-0.16 1.43 1.58 1.99 2.51 2.54 7.15 4.24 15.9 8.76 24.98 11.82 8.21 2.76 15.8 5.64 23.68 8.61 1.91 0.72 4.14 0.84 5.4 2.36-0.77 0.55-1.69-0.27-2.4-0.09-5.59-0.08-11.63 0.97-17.5 0.26-6.4-0.77-12.92-2.29-19.48-2.74-8.03-0.56-16.11-0.98-23.85-2.37-1.61-0.3-3.21-1.28-4.89-0.6-0.05 1.36 1.75 1.23 2.59 1.55 5.4 2.11 11.85 4.86 17.58 5.85 4.63 0.8 9.86 0.47 14.9 1.03 4.03 0.44 7.94 1.06 11.78 1.34 4.23 0.33 9.83 1.29 15.22 1.33 1.07 0.01 3.66-0.6 3.91 0.51 0.18 0.78-6.02 5.21-6.97 5.91-5.39 3.95-10.01 6.03-15.76 9.06-12.04 6.35-25.12 10.92-38.65 14.66z"/>
					<path fill-rule="evenodd" class="s4" d="m38.59 304.3c0.13 0 0.12 0.18 0 0.18-0.13 0-0.13-0.18 0-0.18z"/>
				</g>
			</g>
		</g>
	</g>
</svg>