<?xml version="1.0" standalone="no"?>
<!DOCTYPE svg PUBLIC "-//W3C//DTD SVG 20010904//EN"
 "http://www.w3.org/TR/2001/REC-SVG-20010904/DTD/svg10.dtd">
<svg version="1.0" xmlns="http://www.w3.org/2000/svg"
 width="1280.000000pt" height="1280.000000pt" viewBox="0 0 1280.000000 1280.000000"
 preserveAspectRatio="xMidYMid meet">
<g transform="translate(0.000000,1280.000000) scale(0.100000,-0.100000)"
fill="#000000" stroke="none">
<path d="M0 12753 l0 -47 45 44 c25 24 45 45 45 47 0 2 -20 3 -45 3 l-45 0 0
-47z"/>
<path d="M1233 12753 l47 -48 47 48 48 47 -95 0 -95 0 48 -47z"/>
<path d="M2513 12753 l47 -48 47 48 48 47 -95 0 -95 0 48 -47z"/>
<path d="M3793 12753 l47 -48 47 48 48 47 -95 0 -95 0 48 -47z"/>
<path d="M5073 12753 l47 -48 47 48 48 47 -95 0 -95 0 48 -47z"/>
<path d="M6353 12753 l47 -48 47 48 48 47 -95 0 -95 0 48 -47z"/>
<path d="M7633 12753 l47 -48 47 48 48 47 -95 0 -95 0 48 -47z"/>
<path d="M8913 12753 l47 -48 47 48 48 47 -95 0 -95 0 48 -47z"/>
<path d="M10193 12753 l47 -48 47 48 48 47 -95 0 -95 0 48 -47z"/>
<path d="M11473 12753 l47 -48 47 48 48 47 -95 0 -95 0 48 -47z"/>
<path d="M12750 12755 c24 -25 45 -45 47 -45 2 0 3 20 3 45 l0 45 -47 0 -47 0
44 -45z"/>
<path d="M565 12230 l-70 -70 73 -73 72 -72 72 72 73 73 -70 70 c-38 38 -72
70 -75 70 -3 0 -37 -32 -75 -70z"/>
<path d="M1845 12230 l-70 -70 73 -73 72 -72 72 72 73 73 -70 70 c-38 38 -72
70 -75 70 -3 0 -37 -32 -75 -70z"/>
<path d="M3125 12230 l-70 -70 73 -73 72 -72 72 72 73 73 -70 70 c-38 38 -72
70 -75 70 -3 0 -37 -32 -75 -70z"/>
<path d="M4405 12230 l-70 -70 73 -73 72 -72 72 72 73 73 -70 70 c-38 38 -72
70 -75 70 -3 0 -37 -32 -75 -70z"/>
<path d="M5685 12230 l-70 -70 73 -73 72 -72 72 72 73 73 -70 70 c-38 38 -72
70 -75 70 -3 0 -37 -32 -75 -70z"/>
<path d="M6965 12230 l-70 -70 73 -73 72 -72 72 72 73 73 -70 70 c-38 38 -72
70 -75 70 -3 0 -37 -32 -75 -70z"/>
<path d="M8245 12230 l-70 -70 73 -73 72 -72 72 72 73 73 -70 70 c-38 38 -72
70 -75 70 -3 0 -37 -32 -75 -70z"/>
<path d="M9525 12230 l-70 -70 73 -73 72 -72 72 72 73 73 -70 70 c-38 38 -72
70 -75 70 -3 0 -37 -32 -75 -70z"/>
<path d="M10805 12230 l-70 -70 73 -73 72 -72 72 72 73 73 -70 70 c-38 38 -72
70 -75 70 -3 0 -37 -32 -75 -70z"/>
<path d="M12085 12230 l-70 -70 73 -73 72 -72 72 72 73 73 -70 70 c-38 38 -72
70 -75 70 -3 0 -37 -32 -75 -70z"/>
<path d="M0 11520 c0 -104 3 -190 6 -190 14 0 184 175 184 189 0 16 -168 191
-182 191 -5 0 -8 -85 -8 -190z"/>
<path d="M1177 11622 c-48 -48 -87 -94 -87 -103 0 -18 172 -189 190 -189 18 0
190 171 190 189 0 20 -170 191 -190 191 -8 0 -55 -39 -103 -88z"/>
<path d="M2457 11622 c-48 -48 -87 -94 -87 -103 0 -18 172 -189 190 -189 18 0
190 171 190 189 0 20 -170 191 -190 191 -8 0 -55 -39 -103 -88z"/>
<path d="M3737 11622 c-48 -48 -87 -94 -87 -103 0 -18 172 -189 190 -189 18 0
190 171 190 189 0 20 -170 191 -190 191 -8 0 -55 -39 -103 -88z"/>
<path d="M5017 11622 c-48 -48 -87 -94 -87 -103 0 -18 172 -189 190 -189 18 0
190 171 190 189 0 20 -170 191 -190 191 -8 0 -55 -39 -103 -88z"/>
<path d="M6297 11622 c-48 -48 -87 -94 -87 -103 0 -18 172 -189 190 -189 18 0
190 171 190 189 0 20 -170 191 -190 191 -8 0 -55 -39 -103 -88z"/>
<path d="M7577 11622 c-48 -48 -87 -94 -87 -103 0 -18 172 -189 190 -189 18 0
190 171 190 189 0 20 -170 191 -190 191 -8 0 -55 -39 -103 -88z"/>
<path d="M8857 11622 c-48 -48 -87 -94 -87 -103 0 -18 172 -189 190 -189 18 0
190 171 190 189 0 20 -170 191 -190 191 -8 0 -55 -39 -103 -88z"/>
<path d="M10137 11622 c-48 -48 -87 -94 -87 -103 0 -18 172 -189 190 -189 18
0 190 171 190 189 0 20 -170 191 -190 191 -8 0 -55 -39 -103 -88z"/>
<path d="M11417 11622 c-48 -48 -87 -94 -87 -103 0 -18 172 -189 190 -189 18
0 190 171 190 189 0 20 -170 191 -190 191 -8 0 -55 -39 -103 -88z"/>
<path d="M12697 11622 c-48 -48 -87 -94 -87 -102 0 -15 168 -190 183 -190 4 0
7 86 7 190 0 105 -3 190 -8 190 -4 0 -47 -39 -95 -88z"/>
<path d="M510 11005 l-125 -125 127 -127 127 -127 128 127 128 127 -125 125
c-69 69 -127 125 -130 125 -3 0 -61 -56 -130 -125z"/>
<path d="M1790 11005 l-125 -125 127 -127 127 -127 128 127 128 127 -125 125
c-69 69 -127 125 -130 125 -3 0 -61 -56 -130 -125z"/>
<path d="M3070 11005 l-125 -125 127 -127 127 -127 128 127 128 127 -125 125
c-69 69 -127 125 -130 125 -3 0 -61 -56 -130 -125z"/>
<path d="M4350 11005 l-125 -125 127 -127 127 -127 128 127 128 127 -125 125
c-69 69 -127 125 -130 125 -3 0 -61 -56 -130 -125z"/>
<path d="M5630 11005 l-125 -125 127 -127 127 -127 128 127 128 127 -125 125
c-69 69 -127 125 -130 125 -3 0 -61 -56 -130 -125z"/>
<path d="M6910 11005 l-125 -125 127 -127 127 -127 128 127 128 127 -125 125
c-69 69 -127 125 -130 125 -3 0 -61 -56 -130 -125z"/>
<path d="M8190 11005 l-125 -125 127 -127 127 -127 128 127 128 127 -125 125
c-69 69 -127 125 -130 125 -3 0 -61 -56 -130 -125z"/>
<path d="M9470 11005 l-125 -125 127 -127 127 -127 128 127 128 127 -125 125
c-69 69 -127 125 -130 125 -3 0 -61 -56 -130 -125z"/>
<path d="M10750 11005 l-125 -125 127 -127 127 -127 128 127 128 127 -125 125
c-69 69 -127 125 -130 125 -3 0 -61 -56 -130 -125z"/>
<path d="M12030 11005 l-125 -125 127 -127 127 -127 128 127 128 127 -125 125
c-69 69 -127 125 -130 125 -3 0 -61 -56 -130 -125z"/>
<path d="M0 10240 l0 -305 152 153 153 152 -153 152 -152 153 0 -305z"/>
<path d="M1125 10390 l-150 -150 153 -153 152 -152 152 152 153 153 -150 150
c-82 82 -152 150 -155 150 -3 0 -73 -68 -155 -150z"/>
<path d="M2405 10390 l-150 -150 153 -153 152 -152 152 152 153 153 -150 150
c-82 82 -152 150 -155 150 -3 0 -73 -68 -155 -150z"/>
<path d="M3685 10390 l-150 -150 153 -153 152 -152 152 152 153 153 -150 150
c-82 82 -152 150 -155 150 -3 0 -73 -68 -155 -150z"/>
<path d="M4965 10390 l-150 -150 153 -153 152 -152 152 152 153 153 -150 150
c-82 82 -152 150 -155 150 -3 0 -73 -68 -155 -150z"/>
<path d="M6245 10390 l-150 -150 153 -153 152 -152 152 152 153 153 -150 150
c-82 82 -152 150 -155 150 -3 0 -73 -68 -155 -150z"/>
<path d="M7525 10390 l-150 -150 153 -153 152 -152 152 152 153 153 -150 150
c-82 82 -152 150 -155 150 -3 0 -73 -68 -155 -150z"/>
<path d="M8805 10390 l-150 -150 153 -153 152 -152 152 152 153 153 -150 150
c-82 82 -152 150 -155 150 -3 0 -73 -68 -155 -150z"/>
<path d="M10085 10390 l-150 -150 153 -153 152 -152 152 152 153 153 -150 150
c-82 82 -152 150 -155 150 -3 0 -73 -68 -155 -150z"/>
<path d="M11365 10390 l-150 -150 153 -153 152 -152 152 152 153 153 -150 150
c-82 82 -152 150 -155 150 -3 0 -73 -68 -155 -150z"/>
<path d="M12645 10390 l-150 -150 153 -153 152 -152 0 303 c0 166 -1 302 -3
302 -1 0 -70 -68 -152 -150z"/>
<path d="M460 9775 l-175 -175 178 -178 177 -177 177 177 178 178 -175 175
c-96 96 -177 175 -180 175 -3 0 -84 -79 -180 -175z"/>
<path d="M1740 9775 l-175 -175 178 -178 177 -177 177 177 178 178 -175 175
c-96 96 -177 175 -180 175 -3 0 -84 -79 -180 -175z"/>
<path d="M3020 9775 l-175 -175 178 -178 177 -177 177 177 178 178 -175 175
c-96 96 -177 175 -180 175 -3 0 -84 -79 -180 -175z"/>
<path d="M4300 9775 l-175 -175 178 -178 177 -177 177 177 178 178 -175 175
c-96 96 -177 175 -180 175 -3 0 -84 -79 -180 -175z"/>
<path d="M5580 9775 l-175 -175 178 -178 177 -177 177 177 178 178 -175 175
c-96 96 -177 175 -180 175 -3 0 -84 -79 -180 -175z"/>
<path d="M6860 9775 l-175 -175 178 -178 177 -177 177 177 178 178 -175 175
c-96 96 -177 175 -180 175 -3 0 -84 -79 -180 -175z"/>
<path d="M8140 9775 l-175 -175 178 -178 177 -177 177 177 178 178 -175 175
c-96 96 -177 175 -180 175 -3 0 -84 -79 -180 -175z"/>
<path d="M9420 9775 l-175 -175 178 -178 177 -177 177 177 178 178 -175 175
c-96 96 -177 175 -180 175 -3 0 -84 -79 -180 -175z"/>
<path d="M10700 9775 l-175 -175 178 -178 177 -177 177 177 178 178 -175 175
c-96 96 -177 175 -180 175 -3 0 -84 -79 -180 -175z"/>
<path d="M11980 9775 l-175 -175 178 -178 177 -177 177 177 178 178 -175 175
c-96 96 -177 175 -180 175 -3 0 -84 -79 -180 -175z"/>
<path d="M0 8960 l0 -405 202 203 203 202 -203 202 -202 203 0 -405z"/>
<path d="M1075 9160 l-200 -200 203 -203 202 -202 202 202 203 203 -200 200
c-110 110 -202 200 -205 200 -3 0 -95 -90 -205 -200z"/>
<path d="M2355 9160 l-200 -200 203 -203 202 -202 202 202 203 203 -200 200
c-110 110 -202 200 -205 200 -3 0 -95 -90 -205 -200z"/>
<path d="M3635 9160 l-200 -200 203 -203 202 -202 202 202 203 203 -200 200
c-110 110 -202 200 -205 200 -3 0 -95 -90 -205 -200z"/>
<path d="M4915 9160 l-200 -200 203 -203 202 -202 202 202 203 203 -200 200
c-110 110 -202 200 -205 200 -3 0 -95 -90 -205 -200z"/>
<path d="M6195 9160 l-200 -200 203 -203 202 -202 202 202 203 203 -200 200
c-110 110 -202 200 -205 200 -3 0 -95 -90 -205 -200z"/>
<path d="M7475 9160 l-200 -200 203 -203 202 -202 202 202 203 203 -200 200
c-110 110 -202 200 -205 200 -3 0 -95 -90 -205 -200z"/>
<path d="M8755 9160 l-200 -200 203 -203 202 -202 202 202 203 203 -200 200
c-110 110 -202 200 -205 200 -3 0 -95 -90 -205 -200z"/>
<path d="M10035 9160 l-200 -200 203 -203 202 -202 202 202 203 203 -200 200
c-110 110 -202 200 -205 200 -3 0 -95 -90 -205 -200z"/>
<path d="M11315 9160 l-200 -200 203 -203 202 -202 202 202 203 203 -200 200
c-110 110 -202 200 -205 200 -3 0 -95 -90 -205 -200z"/>
<path d="M12595 9160 l-200 -200 203 -203 202 -202 0 403 c0 221 -1 402 -3
402 -1 0 -92 -90 -202 -200z"/>
<path d="M410 8545 l-225 -225 228 -228 227 -227 227 227 228 228 -225 225
c-124 124 -227 225 -230 225 -3 0 -106 -101 -230 -225z"/>
<path d="M1690 8545 l-225 -225 228 -228 227 -227 227 227 228 228 -225 225
c-124 124 -227 225 -230 225 -3 0 -106 -101 -230 -225z"/>
<path d="M2970 8545 l-225 -225 228 -228 227 -227 227 227 228 228 -225 225
c-124 124 -227 225 -230 225 -3 0 -106 -101 -230 -225z"/>
<path d="M4250 8545 l-225 -225 228 -228 227 -227 227 227 228 228 -225 225
c-124 124 -227 225 -230 225 -3 0 -106 -101 -230 -225z"/>
<path d="M5530 8545 l-225 -225 228 -228 227 -227 227 227 228 228 -225 225
c-124 124 -227 225 -230 225 -3 0 -106 -101 -230 -225z"/>
<path d="M6810 8545 l-225 -225 228 -228 227 -227 227 227 228 228 -225 225
c-124 124 -227 225 -230 225 -3 0 -106 -101 -230 -225z"/>
<path d="M8090 8545 l-225 -225 228 -228 227 -227 227 227 228 228 -225 225
c-124 124 -227 225 -230 225 -3 0 -106 -101 -230 -225z"/>
<path d="M9370 8545 l-225 -225 228 -228 227 -227 227 227 228 228 -225 225
c-124 124 -227 225 -230 225 -3 0 -106 -101 -230 -225z"/>
<path d="M10650 8545 l-225 -225 228 -228 227 -227 227 227 228 228 -225 225
c-124 124 -227 225 -230 225 -3 0 -106 -101 -230 -225z"/>
<path d="M11930 8545 l-225 -225 228 -228 227 -227 227 227 228 228 -225 225
c-124 124 -227 225 -230 225 -3 0 -106 -101 -230 -225z"/>
<path d="M0 7687 c0 -279 3 -507 8 -507 14 0 492 485 492 500 0 8 -112 128
-250 265 l-250 250 0 -508z"/>
<path d="M12548 7943 c-137 -137 -248 -255 -248 -263 0 -17 486 -507 495 -499
3 3 4 232 3 508 l-3 501 -247 -247z"/>
<path d="M1022 7937 c-133 -133 -242 -249 -242 -257 0 -20 481 -500 500 -500
20 0 500 481 500 500 0 20 -481 500 -500 500 -8 0 -124 -109 -258 -243z"/>
<path d="M2302 7937 c-133 -133 -242 -249 -242 -257 0 -20 481 -500 500 -500
20 0 500 481 500 500 0 20 -481 500 -500 500 -8 0 -124 -109 -258 -243z"/>
<path d="M3582 7937 c-133 -133 -242 -249 -242 -257 0 -20 481 -500 500 -500
20 0 500 481 500 500 0 20 -481 500 -500 500 -8 0 -124 -109 -258 -243z"/>
<path d="M4862 7937 c-133 -133 -242 -249 -242 -257 0 -20 481 -500 500 -500
20 0 500 481 500 500 0 20 -481 500 -500 500 -8 0 -124 -109 -258 -243z"/>
<path d="M6142 7937 c-133 -133 -242 -249 -242 -257 0 -20 481 -500 500 -500
20 0 500 481 500 500 0 20 -481 500 -500 500 -8 0 -124 -109 -258 -243z"/>
<path d="M7422 7937 c-133 -133 -242 -249 -242 -257 0 -20 481 -500 500 -500
20 0 500 481 500 500 0 20 -481 500 -500 500 -8 0 -124 -109 -258 -243z"/>
<path d="M8702 7937 c-133 -133 -242 -249 -242 -257 0 -20 481 -500 500 -500
20 0 500 481 500 500 0 20 -481 500 -500 500 -8 0 -124 -109 -258 -243z"/>
<path d="M9982 7937 c-133 -133 -242 -249 -242 -257 0 -20 481 -500 500 -500
20 0 500 481 500 500 0 20 -481 500 -500 500 -8 0 -124 -109 -258 -243z"/>
<path d="M11262 7937 c-133 -133 -242 -249 -242 -257 0 -20 481 -500 500 -500
20 0 500 481 500 500 0 20 -481 500 -500 500 -8 0 -124 -109 -258 -243z"/>
<path d="M355 7320 l-280 -280 283 -283 282 -282 282 282 283 283 -280 280
c-154 154 -282 280 -285 280 -3 0 -131 -126 -285 -280z"/>
<path d="M1635 7320 l-280 -280 283 -283 282 -282 282 282 283 283 -280 280
c-154 154 -282 280 -285 280 -3 0 -131 -126 -285 -280z"/>
<path d="M2915 7320 l-280 -280 283 -283 282 -282 282 282 283 283 -280 280
c-154 154 -282 280 -285 280 -3 0 -131 -126 -285 -280z"/>
<path d="M4195 7320 l-280 -280 283 -283 282 -282 282 282 283 283 -280 280
c-154 154 -282 280 -285 280 -3 0 -131 -126 -285 -280z"/>
<path d="M5475 7320 l-280 -280 283 -283 282 -282 282 282 283 283 -280 280
c-154 154 -282 280 -285 280 -3 0 -131 -126 -285 -280z"/>
<path d="M6755 7320 l-280 -280 283 -283 282 -282 282 282 283 283 -280 280
c-154 154 -282 280 -285 280 -3 0 -131 -126 -285 -280z"/>
<path d="M8035 7320 l-280 -280 283 -283 282 -282 282 282 283 283 -280 280
c-154 154 -282 280 -285 280 -3 0 -131 -126 -285 -280z"/>
<path d="M9315 7320 l-280 -280 283 -283 282 -282 282 282 283 283 -280 280
c-154 154 -282 280 -285 280 -3 0 -131 -126 -285 -280z"/>
<path d="M10595 7320 l-280 -280 283 -283 282 -282 282 282 283 283 -280 280
c-154 154 -282 280 -285 280 -3 0 -131 -126 -285 -280z"/>
<path d="M11875 7320 l-280 -280 283 -283 282 -282 282 282 283 283 -280 280
c-154 154 -282 280 -285 280 -3 0 -131 -126 -285 -280z"/>
<path d="M0 6400 l0 -565 282 283 283 282 -283 282 -282 283 0 -565z"/>
<path d="M995 6680 l-280 -280 283 -283 282 -282 282 282 283 283 -280 280
c-154 154 -282 280 -285 280 -3 0 -131 -126 -285 -280z"/>
<path d="M2275 6680 l-280 -280 283 -283 282 -282 282 282 283 283 -280 280
c-154 154 -282 280 -285 280 -3 0 -131 -126 -285 -280z"/>
<path d="M3555 6680 l-280 -280 283 -283 282 -282 282 282 283 283 -280 280
c-154 154 -282 280 -285 280 -3 0 -131 -126 -285 -280z"/>
<path d="M4835 6680 l-280 -280 283 -283 282 -282 282 282 283 283 -280 280
c-154 154 -282 280 -285 280 -3 0 -131 -126 -285 -280z"/>
<path d="M6115 6680 l-280 -280 283 -283 282 -282 282 282 283 283 -280 280
c-154 154 -282 280 -285 280 -3 0 -131 -126 -285 -280z"/>
<path d="M7395 6680 l-280 -280 283 -283 282 -282 282 282 283 283 -280 280
c-154 154 -282 280 -285 280 -3 0 -131 -126 -285 -280z"/>
<path d="M8675 6680 l-280 -280 283 -283 282 -282 282 282 283 283 -280 280
c-154 154 -282 280 -285 280 -3 0 -131 -126 -285 -280z"/>
<path d="M9955 6680 l-280 -280 283 -283 282 -282 282 282 283 283 -280 280
c-154 154 -282 280 -285 280 -3 0 -131 -126 -285 -280z"/>
<path d="M11235 6680 l-280 -280 283 -283 282 -282 282 282 283 283 -280 280
c-154 154 -282 280 -285 280 -3 0 -131 -126 -285 -280z"/>
<path d="M12515 6680 l-280 -280 283 -283 282 -282 0 563 c0 309 -1 562 -3
562 -1 0 -128 -126 -282 -280z"/>
<path d="M355 6040 l-280 -280 283 -283 282 -282 282 282 283 283 -280 280
c-154 154 -282 280 -285 280 -3 0 -131 -126 -285 -280z"/>
<path d="M1635 6040 l-280 -280 283 -283 282 -282 282 282 283 283 -280 280
c-154 154 -282 280 -285 280 -3 0 -131 -126 -285 -280z"/>
<path d="M2915 6040 l-280 -280 283 -283 282 -282 282 282 283 283 -280 280
c-154 154 -282 280 -285 280 -3 0 -131 -126 -285 -280z"/>
<path d="M4195 6040 l-280 -280 283 -283 282 -282 282 282 283 283 -280 280
c-154 154 -282 280 -285 280 -3 0 -131 -126 -285 -280z"/>
<path d="M5475 6040 l-280 -280 283 -283 282 -282 282 282 283 283 -280 280
c-154 154 -282 280 -285 280 -3 0 -131 -126 -285 -280z"/>
<path d="M6755 6040 l-280 -280 283 -283 282 -282 282 282 283 283 -280 280
c-154 154 -282 280 -285 280 -3 0 -131 -126 -285 -280z"/>
<path d="M8035 6040 l-280 -280 283 -283 282 -282 282 282 283 283 -280 280
c-154 154 -282 280 -285 280 -3 0 -131 -126 -285 -280z"/>
<path d="M9315 6040 l-280 -280 283 -283 282 -282 282 282 283 283 -280 280
c-154 154 -282 280 -285 280 -3 0 -131 -126 -285 -280z"/>
<path d="M10595 6040 l-280 -280 283 -283 282 -282 282 282 283 283 -280 280
c-154 154 -282 280 -285 280 -3 0 -131 -126 -285 -280z"/>
<path d="M11875 6040 l-280 -280 283 -283 282 -282 282 282 283 283 -280 280
c-154 154 -282 280 -285 280 -3 0 -131 -126 -285 -280z"/>
<path d="M0 5127 c0 -279 3 -507 8 -507 14 0 492 485 492 500 0 8 -112 128
-250 265 l-250 250 0 -508z"/>
<path d="M12548 5383 c-137 -137 -248 -255 -248 -263 0 -17 486 -507 495 -499
3 3 4 232 3 508 l-3 501 -247 -247z"/>
<path d="M1022 5377 c-133 -133 -242 -249 -242 -257 0 -20 481 -500 500 -500
20 0 500 481 500 500 0 20 -481 500 -500 500 -8 0 -124 -109 -258 -243z"/>
<path d="M2302 5377 c-133 -133 -242 -249 -242 -257 0 -20 481 -500 500 -500
20 0 500 481 500 500 0 20 -481 500 -500 500 -8 0 -124 -109 -258 -243z"/>
<path d="M3582 5377 c-133 -133 -242 -249 -242 -257 0 -20 481 -500 500 -500
20 0 500 481 500 500 0 20 -481 500 -500 500 -8 0 -124 -109 -258 -243z"/>
<path d="M4862 5377 c-133 -133 -242 -249 -242 -257 0 -20 481 -500 500 -500
20 0 500 481 500 500 0 20 -481 500 -500 500 -8 0 -124 -109 -258 -243z"/>
<path d="M6142 5377 c-133 -133 -242 -249 -242 -257 0 -20 481 -500 500 -500
20 0 500 481 500 500 0 20 -481 500 -500 500 -8 0 -124 -109 -258 -243z"/>
<path d="M7422 5377 c-133 -133 -242 -249 -242 -257 0 -20 481 -500 500 -500
20 0 500 481 500 500 0 20 -481 500 -500 500 -8 0 -124 -109 -258 -243z"/>
<path d="M8702 5377 c-133 -133 -242 -249 -242 -257 0 -20 481 -500 500 -500
20 0 500 481 500 500 0 20 -481 500 -500 500 -8 0 -124 -109 -258 -243z"/>
<path d="M9982 5377 c-133 -133 -242 -249 -242 -257 0 -20 481 -500 500 -500
20 0 500 481 500 500 0 20 -481 500 -500 500 -8 0 -124 -109 -258 -243z"/>
<path d="M11262 5377 c-133 -133 -242 -249 -242 -257 0 -20 481 -500 500 -500
20 0 500 481 500 500 0 20 -481 500 -500 500 -8 0 -124 -109 -258 -243z"/>
<path d="M410 4705 l-225 -225 228 -228 227 -227 227 227 228 228 -225 225
c-124 124 -227 225 -230 225 -3 0 -106 -101 -230 -225z"/>
<path d="M1690 4705 l-225 -225 228 -228 227 -227 227 227 228 228 -225 225
c-124 124 -227 225 -230 225 -3 0 -106 -101 -230 -225z"/>
<path d="M2970 4705 l-225 -225 228 -228 227 -227 227 227 228 228 -225 225
c-124 124 -227 225 -230 225 -3 0 -106 -101 -230 -225z"/>
<path d="M4250 4705 l-225 -225 228 -228 227 -227 227 227 228 228 -225 225
c-124 124 -227 225 -230 225 -3 0 -106 -101 -230 -225z"/>
<path d="M5530 4705 l-225 -225 228 -228 227 -227 227 227 228 228 -225 225
c-124 124 -227 225 -230 225 -3 0 -106 -101 -230 -225z"/>
<path d="M6810 4705 l-225 -225 228 -228 227 -227 227 227 228 228 -225 225
c-124 124 -227 225 -230 225 -3 0 -106 -101 -230 -225z"/>
<path d="M8090 4705 l-225 -225 228 -228 227 -227 227 227 228 228 -225 225
c-124 124 -227 225 -230 225 -3 0 -106 -101 -230 -225z"/>
<path d="M9370 4705 l-225 -225 228 -228 227 -227 227 227 228 228 -225 225
c-124 124 -227 225 -230 225 -3 0 -106 -101 -230 -225z"/>
<path d="M10650 4705 l-225 -225 228 -228 227 -227 227 227 228 228 -225 225
c-124 124 -227 225 -230 225 -3 0 -106 -101 -230 -225z"/>
<path d="M11930 4705 l-225 -225 228 -228 227 -227 227 227 228 228 -225 225
c-124 124 -227 225 -230 225 -3 0 -106 -101 -230 -225z"/>
<path d="M0 3840 l0 -405 202 203 203 202 -203 202 -202 203 0 -405z"/>
<path d="M1075 4040 l-200 -200 203 -203 202 -202 202 202 203 203 -200 200
c-110 110 -202 200 -205 200 -3 0 -95 -90 -205 -200z"/>
<path d="M2355 4040 l-200 -200 203 -203 202 -202 202 202 203 203 -200 200
c-110 110 -202 200 -205 200 -3 0 -95 -90 -205 -200z"/>
<path d="M3635 4040 l-200 -200 203 -203 202 -202 202 202 203 203 -200 200
c-110 110 -202 200 -205 200 -3 0 -95 -90 -205 -200z"/>
<path d="M4915 4040 l-200 -200 203 -203 202 -202 202 202 203 203 -200 200
c-110 110 -202 200 -205 200 -3 0 -95 -90 -205 -200z"/>
<path d="M6195 4040 l-200 -200 203 -203 202 -202 202 202 203 203 -200 200
c-110 110 -202 200 -205 200 -3 0 -95 -90 -205 -200z"/>
<path d="M7475 4040 l-200 -200 203 -203 202 -202 202 202 203 203 -200 200
c-110 110 -202 200 -205 200 -3 0 -95 -90 -205 -200z"/>
<path d="M8755 4040 l-200 -200 203 -203 202 -202 202 202 203 203 -200 200
c-110 110 -202 200 -205 200 -3 0 -95 -90 -205 -200z"/>
<path d="M10035 4040 l-200 -200 203 -203 202 -202 202 202 203 203 -200 200
c-110 110 -202 200 -205 200 -3 0 -95 -90 -205 -200z"/>
<path d="M11315 4040 l-200 -200 203 -203 202 -202 202 202 203 203 -200 200
c-110 110 -202 200 -205 200 -3 0 -95 -90 -205 -200z"/>
<path d="M12595 4040 l-200 -200 203 -203 202 -202 0 403 c0 221 -1 402 -3
402 -1 0 -92 -90 -202 -200z"/>
<path d="M460 3375 l-175 -175 178 -178 177 -177 177 177 178 178 -175 175
c-96 96 -177 175 -180 175 -3 0 -84 -79 -180 -175z"/>
<path d="M1740 3375 l-175 -175 178 -178 177 -177 177 177 178 178 -175 175
c-96 96 -177 175 -180 175 -3 0 -84 -79 -180 -175z"/>
<path d="M3020 3375 l-175 -175 178 -178 177 -177 177 177 178 178 -175 175
c-96 96 -177 175 -180 175 -3 0 -84 -79 -180 -175z"/>
<path d="M4300 3375 l-175 -175 178 -178 177 -177 177 177 178 178 -175 175
c-96 96 -177 175 -180 175 -3 0 -84 -79 -180 -175z"/>
<path d="M5580 3375 l-175 -175 178 -178 177 -177 177 177 178 178 -175 175
c-96 96 -177 175 -180 175 -3 0 -84 -79 -180 -175z"/>
<path d="M6860 3375 l-175 -175 178 -178 177 -177 177 177 178 178 -175 175
c-96 96 -177 175 -180 175 -3 0 -84 -79 -180 -175z"/>
<path d="M8140 3375 l-175 -175 178 -178 177 -177 177 177 178 178 -175 175
c-96 96 -177 175 -180 175 -3 0 -84 -79 -180 -175z"/>
<path d="M9420 3375 l-175 -175 178 -178 177 -177 177 177 178 178 -175 175
c-96 96 -177 175 -180 175 -3 0 -84 -79 -180 -175z"/>
<path d="M10700 3375 l-175 -175 178 -178 177 -177 177 177 178 178 -175 175
c-96 96 -177 175 -180 175 -3 0 -84 -79 -180 -175z"/>
<path d="M11980 3375 l-175 -175 178 -178 177 -177 177 177 178 178 -175 175
c-96 96 -177 175 -180 175 -3 0 -84 -79 -180 -175z"/>
<path d="M0 2560 l0 -305 152 153 153 152 -153 152 -152 153 0 -305z"/>
<path d="M1125 2710 l-150 -150 153 -153 152 -152 152 152 153 153 -150 150
c-82 82 -152 150 -155 150 -3 0 -73 -68 -155 -150z"/>
<path d="M2405 2710 l-150 -150 153 -153 152 -152 152 152 153 153 -150 150
c-82 82 -152 150 -155 150 -3 0 -73 -68 -155 -150z"/>
<path d="M3685 2710 l-150 -150 153 -153 152 -152 152 152 153 153 -150 150
c-82 82 -152 150 -155 150 -3 0 -73 -68 -155 -150z"/>
<path d="M4965 2710 l-150 -150 153 -153 152 -152 152 152 153 153 -150 150
c-82 82 -152 150 -155 150 -3 0 -73 -68 -155 -150z"/>
<path d="M6245 2710 l-150 -150 153 -153 152 -152 152 152 153 153 -150 150
c-82 82 -152 150 -155 150 -3 0 -73 -68 -155 -150z"/>
<path d="M7525 2710 l-150 -150 153 -153 152 -152 152 152 153 153 -150 150
c-82 82 -152 150 -155 150 -3 0 -73 -68 -155 -150z"/>
<path d="M8805 2710 l-150 -150 153 -153 152 -152 152 152 153 153 -150 150
c-82 82 -152 150 -155 150 -3 0 -73 -68 -155 -150z"/>
<path d="M10085 2710 l-150 -150 153 -153 152 -152 152 152 153 153 -150 150
c-82 82 -152 150 -155 150 -3 0 -73 -68 -155 -150z"/>
<path d="M11365 2710 l-150 -150 153 -153 152 -152 152 152 153 153 -150 150
c-82 82 -152 150 -155 150 -3 0 -73 -68 -155 -150z"/>
<path d="M12645 2710 l-150 -150 153 -153 152 -152 0 303 c0 166 -1 302 -3
302 -1 0 -70 -68 -152 -150z"/>
<path d="M510 2045 l-125 -125 127 -127 127 -127 128 127 128 127 -125 125
c-69 69 -127 125 -130 125 -3 0 -61 -56 -130 -125z"/>
<path d="M1790 2045 l-125 -125 127 -127 127 -127 128 127 128 127 -125 125
c-69 69 -127 125 -130 125 -3 0 -61 -56 -130 -125z"/>
<path d="M3070 2045 l-125 -125 127 -127 127 -127 128 127 128 127 -125 125
c-69 69 -127 125 -130 125 -3 0 -61 -56 -130 -125z"/>
<path d="M4350 2045 l-125 -125 127 -127 127 -127 128 127 128 127 -125 125
c-69 69 -127 125 -130 125 -3 0 -61 -56 -130 -125z"/>
<path d="M5630 2045 l-125 -125 127 -127 127 -127 128 127 128 127 -125 125
c-69 69 -127 125 -130 125 -3 0 -61 -56 -130 -125z"/>
<path d="M6910 2045 l-125 -125 127 -127 127 -127 128 127 128 127 -125 125
c-69 69 -127 125 -130 125 -3 0 -61 -56 -130 -125z"/>
<path d="M8190 2045 l-125 -125 127 -127 127 -127 128 127 128 127 -125 125
c-69 69 -127 125 -130 125 -3 0 -61 -56 -130 -125z"/>
<path d="M9470 2045 l-125 -125 127 -127 127 -127 128 127 128 127 -125 125
c-69 69 -127 125 -130 125 -3 0 -61 -56 -130 -125z"/>
<path d="M10750 2045 l-125 -125 127 -127 127 -127 128 127 128 127 -125 125
c-69 69 -127 125 -130 125 -3 0 -61 -56 -130 -125z"/>
<path d="M12030 2045 l-125 -125 127 -127 127 -127 128 127 128 127 -125 125
c-69 69 -127 125 -130 125 -3 0 -61 -56 -130 -125z"/>
<path d="M0 1280 c0 -104 3 -190 6 -190 14 0 184 175 184 189 0 16 -168 191
-182 191 -5 0 -8 -85 -8 -190z"/>
<path d="M1177 1382 c-48 -48 -87 -94 -87 -103 0 -18 172 -189 190 -189 18 0
190 171 190 189 0 20 -170 191 -190 191 -8 0 -55 -39 -103 -88z"/>
<path d="M2457 1382 c-48 -48 -87 -94 -87 -103 0 -18 172 -189 190 -189 18 0
190 171 190 189 0 20 -170 191 -190 191 -8 0 -55 -39 -103 -88z"/>
<path d="M3737 1382 c-48 -48 -87 -94 -87 -103 0 -18 172 -189 190 -189 18 0
190 171 190 189 0 20 -170 191 -190 191 -8 0 -55 -39 -103 -88z"/>
<path d="M5017 1382 c-48 -48 -87 -94 -87 -103 0 -18 172 -189 190 -189 18 0
190 171 190 189 0 20 -170 191 -190 191 -8 0 -55 -39 -103 -88z"/>
<path d="M6297 1382 c-48 -48 -87 -94 -87 -103 0 -18 172 -189 190 -189 18 0
190 171 190 189 0 20 -170 191 -190 191 -8 0 -55 -39 -103 -88z"/>
<path d="M7577 1382 c-48 -48 -87 -94 -87 -103 0 -18 172 -189 190 -189 18 0
190 171 190 189 0 20 -170 191 -190 191 -8 0 -55 -39 -103 -88z"/>
<path d="M8857 1382 c-48 -48 -87 -94 -87 -103 0 -18 172 -189 190 -189 18 0
190 171 190 189 0 20 -170 191 -190 191 -8 0 -55 -39 -103 -88z"/>
<path d="M10137 1382 c-48 -48 -87 -94 -87 -103 0 -18 172 -189 190 -189 18 0
190 171 190 189 0 20 -170 191 -190 191 -8 0 -55 -39 -103 -88z"/>
<path d="M11417 1382 c-48 -48 -87 -94 -87 -103 0 -18 172 -189 190 -189 18 0
190 171 190 189 0 20 -170 191 -190 191 -8 0 -55 -39 -103 -88z"/>
<path d="M12697 1382 c-48 -48 -87 -94 -87 -102 0 -15 168 -190 183 -190 4 0
7 86 7 190 0 105 -3 190 -8 190 -4 0 -47 -39 -95 -88z"/>
<path d="M565 710 l-70 -70 73 -73 72 -72 72 72 73 73 -70 70 c-38 38 -72 70
-75 70 -3 0 -37 -32 -75 -70z"/>
<path d="M1845 710 l-70 -70 73 -73 72 -72 72 72 73 73 -70 70 c-38 38 -72 70
-75 70 -3 0 -37 -32 -75 -70z"/>
<path d="M3125 710 l-70 -70 73 -73 72 -72 72 72 73 73 -70 70 c-38 38 -72 70
-75 70 -3 0 -37 -32 -75 -70z"/>
<path d="M4405 710 l-70 -70 73 -73 72 -72 72 72 73 73 -70 70 c-38 38 -72 70
-75 70 -3 0 -37 -32 -75 -70z"/>
<path d="M5685 710 l-70 -70 73 -73 72 -72 72 72 73 73 -70 70 c-38 38 -72 70
-75 70 -3 0 -37 -32 -75 -70z"/>
<path d="M6965 710 l-70 -70 73 -73 72 -72 72 72 73 73 -70 70 c-38 38 -72 70
-75 70 -3 0 -37 -32 -75 -70z"/>
<path d="M8245 710 l-70 -70 73 -73 72 -72 72 72 73 73 -70 70 c-38 38 -72 70
-75 70 -3 0 -37 -32 -75 -70z"/>
<path d="M9525 710 l-70 -70 73 -73 72 -72 72 72 73 73 -70 70 c-38 38 -72 70
-75 70 -3 0 -37 -32 -75 -70z"/>
<path d="M10805 710 l-70 -70 73 -73 72 -72 72 72 73 73 -70 70 c-38 38 -72
70 -75 70 -3 0 -37 -32 -75 -70z"/>
<path d="M12085 710 l-70 -70 73 -73 72 -72 72 72 73 73 -70 70 c-38 38 -72
70 -75 70 -3 0 -37 -32 -75 -70z"/>
<path d="M0 47 l0 -47 45 0 c25 0 45 1 45 3 0 2 -20 23 -45 47 l-45 44 0 -47z"/>
<path d="M1230 45 l-44 -45 94 0 94 0 -44 45 c-24 25 -47 45 -50 45 -3 0 -26
-20 -50 -45z"/>
<path d="M2510 45 l-44 -45 94 0 94 0 -44 45 c-24 25 -47 45 -50 45 -3 0 -26
-20 -50 -45z"/>
<path d="M3790 45 l-44 -45 94 0 94 0 -44 45 c-24 25 -47 45 -50 45 -3 0 -26
-20 -50 -45z"/>
<path d="M5070 45 l-44 -45 94 0 94 0 -44 45 c-24 25 -47 45 -50 45 -3 0 -26
-20 -50 -45z"/>
<path d="M6350 45 l-44 -45 94 0 94 0 -44 45 c-24 25 -47 45 -50 45 -3 0 -26
-20 -50 -45z"/>
<path d="M7630 45 l-44 -45 94 0 94 0 -44 45 c-24 25 -47 45 -50 45 -3 0 -26
-20 -50 -45z"/>
<path d="M8910 45 l-44 -45 94 0 94 0 -44 45 c-24 25 -47 45 -50 45 -3 0 -26
-20 -50 -45z"/>
<path d="M10190 45 l-44 -45 94 0 94 0 -44 45 c-24 25 -47 45 -50 45 -3 0 -26
-20 -50 -45z"/>
<path d="M11470 45 l-44 -45 94 0 94 0 -44 45 c-24 25 -47 45 -50 45 -3 0 -26
-20 -50 -45z"/>
<path d="M12750 45 l-44 -45 47 0 47 0 0 45 c0 25 -1 45 -3 45 -2 0 -23 -20
-47 -45z"/>
</g>
</svg>
